<?xml version="1.0" standalone="no"?>
<!DOCTYPE svg PUBLIC "-//W3C//DTD SVG 20010904//EN"
 "http://www.w3.org/TR/2001/REC-SVG-20010904/DTD/svg10.dtd">
<svg version="1.0" xmlns="http://www.w3.org/2000/svg"
 width="1634.000000pt" height="750.000000pt" viewBox="0 0 1634.000000 750.000000"
 preserveAspectRatio="xMidYMid meet">
<metadata>
Created by potrace 1.15, written by Peter Selinger 2001-2017
</metadata>
<g transform="translate(0.000000,750.000000) scale(0.100000,-0.100000)"
fill="#000000" stroke="none">
<path d="M2 5908 l3 -1593 250 -125 c350 -175 629 -275 889 -320 257 -44 577
-50 866 -15 336 39 499 86 1105 317 371 141 540 194 765 241 279 59 538 47
790 -35 167 -54 487 -201 760 -348 414 -224 785 -409 1115 -556 91 -40 390
-159 515 -204 311 -113 480 -215 480 -291 0 -9 7 -19 15 -23 18 -7 20 -27 3
-24 -7 2 -12 -5 -11 -16 1 -10 -7 -28 -18 -39 -10 -12 -19 -24 -19 -28 0 -4
-33 -33 -72 -65 -40 -32 -77 -64 -81 -71 -4 -7 -13 -13 -20 -13 -7 0 -6 4 3
10 8 5 11 10 7 10 -4 0 -20 -9 -35 -20 -45 -34 -200 -89 -296 -106 -68 -12
-124 -15 -221 -10 -273 12 -515 77 -975 263 -704 284 -1021 365 -1425 366
-326 1 -555 -51 -866 -196 -126 -59 -196 -104 -261 -170 -156 -159 -156 -342
1 -421 92 -47 289 -85 434 -86 122 0 310 -46 462 -112 78 -34 108 -53 246
-150 166 -117 286 -161 524 -192 207 -28 312 -54 411 -101 140 -68 214 -156
214 -257 0 -16 5 -28 13 -28 6 0 93 20 192 45 235 58 504 139 715 215 217 78
255 92 377 133 67 23 119 46 116 51 -3 5 -1 6 5 2 7 -4 53 7 104 23 51 17 137
43 191 59 53 15 94 32 90 37 -5 4 -3 5 4 1 7 -3 58 5 115 19 160 41 383 86
435 88 7 0 15 7 18 15 4 11 -1 13 -21 8 -16 -4 -23 -3 -19 3 3 7 0 8 -10 5
-16 -7 -94 21 -191 67 -33 16 -65 29 -70 29 -18 0 -84 62 -78 72 5 7 0 9 -14
6 -12 -4 -20 -2 -16 3 3 5 1 9 -4 9 -6 0 -34 16 -63 36 -48 32 -66 52 -68 77
-2 14 53 30 97 28 l42 -3 0 51 0 51 40 0 c29 0 40 4 40 15 0 11 -11 15 -40 15
-29 0 -40 4 -40 15 0 11 11 15 40 15 22 0 40 5 40 10 0 6 18 10 40 10 29 0 40
4 40 15 0 11 -11 15 -40 15 -29 0 -40 4 -40 15 0 11 11 15 40 15 l40 0 0 50 0
50 40 0 c29 0 40 4 40 15 0 11 -11 15 -40 15 -29 0 -40 4 -40 15 0 11 11 15
40 15 22 0 40 5 40 10 0 6 18 10 40 10 29 0 40 4 40 15 0 11 -11 15 -40 15
-29 0 -40 4 -40 15 0 11 11 15 40 15 28 0 40 4 40 14 0 8 -4 18 -10 21 -18 11
-11 25 13 25 13 0 32 7 43 15 10 8 27 15 37 15 10 0 31 7 47 15 23 12 30 13
30 3 1 -9 5 -7 14 4 7 9 41 29 77 44 35 15 82 35 105 45 22 11 44 19 48 19 4
0 22 6 39 14 18 7 68 28 112 47 44 18 82 36 85 39 3 3 25 12 50 20 25 8 47 17
50 20 5 5 26 16 105 50 57 25 163 75 215 101 59 29 109 54 263 129 81 40 150
76 153 81 3 5 14 9 24 9 10 0 20 3 22 8 5 10 127 72 144 72 8 0 14 4 14 9 0
10 119 71 138 71 7 0 23 11 35 24 13 14 42 32 65 41 30 12 42 23 42 37 0 16 5
19 24 16 14 -3 33 3 47 15 20 16 21 18 4 12 -40 -14 -98 -26 -109 -21 -6 2 -1
5 12 5 12 1 22 7 22 15 0 14 42 26 91 26 16 0 29 -4 29 -10 0 -5 4 -10 9 -10
5 0 4 11 -2 25 -10 20 -19 25 -49 25 -27 0 -38 4 -38 15 0 11 11 15 40 15 22
0 40 5 40 10 0 6 18 10 40 10 29 0 40 4 40 15 0 11 -11 15 -40 15 -29 0 -40 4
-40 15 0 11 11 15 40 15 l40 0 0 50 0 50 40 0 c29 0 40 4 40 15 0 11 -11 15
-40 15 -29 0 -40 4 -40 15 0 11 11 15 40 15 22 0 40 5 40 10 0 6 18 10 40 10
29 0 40 4 40 15 0 11 -11 15 -40 15 -29 0 -40 4 -40 15 0 11 11 15 40 15 22 0
40 5 40 10 0 6 18 10 40 10 29 0 40 4 40 15 0 11 -11 15 -40 15 -29 0 -40 4
-40 15 0 11 11 15 40 15 l40 0 0 50 0 50 40 0 c29 0 40 4 40 15 0 11 -11 15
-40 15 -29 0 -40 4 -40 15 0 11 11 15 40 15 22 0 40 5 40 10 0 6 18 10 40 10
29 0 40 4 40 15 0 11 -11 15 -40 15 -29 0 -40 4 -40 15 0 11 11 15 40 15 l40
0 0 50 0 50 40 0 c29 0 40 4 40 15 0 11 -11 15 -40 15 -29 0 -40 4 -40 15 0
11 11 15 40 15 22 0 40 5 40 10 0 6 18 10 40 10 29 0 40 4 40 15 0 11 -11 15
-40 15 -29 0 -40 4 -40 15 0 11 11 15 40 15 l40 0 0 50 0 50 40 0 c29 0 40 4
40 15 0 11 -11 15 -40 15 -29 0 -40 4 -40 15 0 11 11 15 40 15 22 0 40 5 40
10 0 6 18 10 40 10 29 0 40 4 40 15 0 11 -11 15 -40 15 -29 0 -40 4 -40 15 0
11 11 15 40 15 22 0 40 5 40 10 0 6 18 10 40 10 29 0 40 4 40 15 0 11 -11 15
-40 15 -29 0 -40 4 -40 15 0 11 11 15 40 15 l40 0 0 50 0 50 40 0 c29 0 40 4
40 15 0 11 -11 15 -40 15 -29 0 -40 4 -40 15 0 11 11 15 40 15 22 0 40 5 40
10 0 6 18 10 40 10 29 0 40 4 40 15 0 11 -11 15 -40 15 -29 0 -40 4 -40 15 0
11 11 15 40 15 l40 0 0 50 0 50 40 0 c29 0 40 4 40 15 0 11 -11 15 -40 15 -29
0 -40 4 -40 15 0 11 11 15 40 15 22 0 40 5 40 10 0 6 18 10 40 10 29 0 40 4
40 15 0 11 -11 15 -40 15 -29 0 -40 4 -40 15 0 11 11 15 40 15 22 0 40 5 40
10 0 6 18 10 40 10 29 0 40 4 40 15 0 11 -11 15 -40 15 -29 0 -40 4 -40 15 0
11 11 15 40 15 l40 0 0 50 0 50 40 0 c29 0 40 4 40 15 0 11 -11 15 -40 15 -29
0 -40 4 -40 15 0 11 11 15 40 15 22 0 40 5 40 10 0 6 18 10 40 10 29 0 40 4
40 15 0 11 -11 15 -40 15 -29 0 -40 4 -40 15 0 11 11 15 40 15 l40 0 0 50 0
50 40 0 c29 0 40 4 40 15 0 11 -11 15 -40 15 -29 0 -40 4 -40 15 0 11 11 15
40 15 22 0 40 5 40 10 0 6 18 10 40 10 29 0 40 4 40 15 0 11 -11 15 -40 15
-29 0 -40 4 -40 15 0 11 11 15 40 15 22 0 40 5 40 10 0 6 18 10 40 10 29 0 40
4 40 15 0 11 -11 15 -40 15 -29 0 -40 4 -40 15 0 11 11 15 40 15 l40 0 0 50 0
50 40 0 c29 0 40 4 40 15 0 11 -11 15 -40 15 -29 0 -40 4 -40 15 0 11 11 15
40 15 22 0 40 5 40 10 0 6 18 10 40 10 29 0 40 4 40 15 0 11 -11 15 -40 15
-29 0 -40 4 -40 15 0 11 11 15 40 15 l40 0 0 50 0 50 40 0 c29 0 40 4 40 15 0
11 -11 15 -40 15 -29 0 -40 4 -40 15 0 11 11 15 40 15 22 0 40 5 40 10 0 6 18
10 40 10 29 0 40 4 40 15 0 11 -11 15 -40 15 -29 0 -40 4 -40 15 0 11 11 15
40 15 l40 0 0 50 0 50 40 0 c29 0 40 4 40 15 0 11 -11 15 -40 15 -29 0 -40 4
-40 15 0 11 11 15 40 15 22 0 40 5 40 10 0 6 18 10 40 10 29 0 40 4 40 15 0
11 -11 15 -40 15 -29 0 -40 4 -40 15 0 11 11 15 40 15 22 0 40 5 40 10 0 6 18
10 40 10 29 0 40 4 40 15 0 11 -11 15 -40 15 -29 0 -40 4 -40 15 0 11 11 15
40 15 l40 0 0 50 0 50 40 0 c29 0 40 4 40 15 0 11 -11 15 -40 15 -29 0 -40 4
-40 15 0 11 11 15 40 15 22 0 40 5 40 10 0 6 18 10 40 10 29 0 40 4 40 15 0
11 -11 15 -40 15 -57 0 -55 27 3 33 23 2 -2731 4 -6121 5 l-6162 2 2 -1592z"/>
<path d="M16325 2778 c-5 -9 -24 -31 -40 -50 -17 -18 -82 -91 -146 -163 -593
-665 -1412 -1328 -2224 -1800 -209 -122 -522 -280 -702 -356 -92 -38 -147 -67
-139 -71 35 -20 299 -81 431 -99 251 -35 618 -20 1005 41 620 99 1187 287
1683 557 76 42 141 81 143 87 10 25 -1 1871 -11 1854z"/>
</g>
</svg>
