<svg xmlns="http://www.w3.org/2000/svg" xmlns:xlink="http://www.w3.org/1999/xlink" width="81" height="81" viewBox="0 0 81 81">
  <defs>
    <linearGradient id="linear-gradient" y1="0.5" x2="1" y2="0.5" gradientUnits="objectBoundingBox">
      <stop offset="0" stop-color="#5cbed0"/>
      <stop offset="1" stop-color="#2d5565"/>
    </linearGradient>
  </defs>
  <g id="Group111882" transform="translate(-1322 -1011)">
    <path id="Path_36121" data-name="Path 36121" d="M40.5,0A40.5,40.5,0,1,1,0,40.5,40.5,40.5,0,0,1,40.5,0Z" transform="translate(1322 1011)" fill="#4ba0a7" opacity="0.12"/>
    <path id="USERS" d="M777.856,892.7v0a1.542,1.542,0,0,1-1.544,1.539H764.807a1.919,1.919,0,0,0,1.508-1.87v0h0s0-6.991-5.125-9.532a9.232,9.232,0,0,0-3.423-1.137l.03-3.029s-1.2-.912-1.568-3.772c-.749.216-1-.876-1.04-1.571-.04-.671-.433-2.768.48-2.579a18.451,18.451,0,0,1-.255-3.332c.229-2.348,2.5-4.8,5.994-4.981,4.111.179,5.74,2.631,5.969,4.979a18.647,18.647,0,0,1-.267,3.331c.914-.187.516,1.906.472,2.578-.04.695-.293,1.783-1.04,1.567-.373,2.86-1.57,3.765-1.57,3.765l.028,3.024s.756.431,3.951,1.749,2.192.333,4.795,1.623c4.112,2.039,4.112,7.648,4.112,7.648Zm-23.17-10.344c3.511,1.451,2.41.366,5.27,1.784,4.52,2.241,4.52,8.406,4.52,8.406h0v0a1.694,1.694,0,0,1-1.7,1.691h-32.82a1.694,1.694,0,0,1-1.7-1.691v0h0s0-6.165,4.52-8.407c2.86-1.418,1.759-.267,5.271-1.718a40.555,40.555,0,0,0,4.343-1.955l.033-3.34s-1.315-1-1.724-4.146c-.823.237-1.095-.963-1.143-1.727-.044-.737-.476-3.043.528-2.835a20.342,20.342,0,0,1-.28-3.662c.252-2.581,2.746-5.278,6.588-5.475,4.519.2,6.309,2.891,6.56,5.472a20.459,20.459,0,0,1-.293,3.661c1-.205.568,2.1.519,2.834-.045.764-.323,1.96-1.143,1.723-.41,3.143-1.725,4.138-1.725,4.138l.031,3.324S751.175,880.905,754.686,882.355Z" transform="translate(612.188 173.72)" fill-rule="evenodd" fill="url(#linear-gradient)"/>
  </g>
</svg>
