<svg xmlns="http://www.w3.org/2000/svg" xmlns:xlink="http://www.w3.org/1999/xlink" width="113.002" height="122.922" viewBox="0 0 113.002 122.922">
  <defs>
    <clipPath id="clip-path">
      <path id="Path_7334" data-name="Path 7334" d="M56.5-116.935a33.972,33.972,0,0,0-22.768-8.689,33.888,33.888,0,0,0-21.048,7.284A32.681,32.681,0,0,0,7.512-71.848c7.126,8.23,19.455,13.8,36.474,7.623,8.6-3.12,13.167-4.191,23.058,1.211l1.6.827c1.18.517,2.844,1.206,4.221,1.712,2.622.964,5.671,2.069,2.926,3.939-1.285.874-3.736,2.412-10.134.187,3.743,1.4,4.672,1.644,4.672,1.644a25.1,25.1,0,0,0,9.807.506c6.068-.926,15.7-6.93,22.469-14.176.154-.169.309-.34.463-.511.272-.3.543-.6.8-.9a35.654,35.654,0,0,0,3.745-4.973,32.681,32.681,0,0,0-7.3-43.583,33.888,33.888,0,0,0-21.049-7.284A33.974,33.974,0,0,0,56.5-116.935Zm1.675,8.666a1.411,1.411,0,0,1,1.422-1.4,1.41,1.41,0,0,1,1.423,1.4,1.409,1.409,0,0,1-1.423,1.4A1.409,1.409,0,0,1,58.178-108.27Zm-.711,4.308a2.323,2.323,0,0,1,2.359-2.189,2.343,2.343,0,0,1,2.365,2.2l1.19,7.456c.244-.437.508-1.561,1.02-1.594.354-.019.573.289.854,1.025.224.5.4.843.521,1.053l14.582.71v.011a.347.347,0,0,1,.046-.01.677.677,0,0,1,.682.671.676.676,0,0,1-.682.669.347.347,0,0,1-.046-.009v.008l-14.028.679a.693.693,0,0,1-.114.008c-1.551,0-1.649-1.479-1.905-1.763-.31,1.636-.738,2.013-1.122,2.154a1.944,1.944,0,0,1-.627.1,1.567,1.567,0,0,1-1.569-1.252l-.039-.225L59.89-102.7,56.5-76.568a2.321,2.321,0,0,1-2.36,2.187,2.345,2.345,0,0,1-2.36-2.164l-.651-3.229a1.371,1.371,0,0,1,1.1-1.606A1.382,1.382,0,0,1,53.861-80.3l.242,3.042ZM48.4-91.975c.242-.365.5-.813.654-1.076.083-.144.141-.243.159-.269a1.279,1.279,0,0,1,1.234-.79c.492.054.75.8.8,1.08l.027.1,1.082,3.291a1.37,1.37,0,0,1-1.142,1.57,1.444,1.444,0,0,1-.231.02,1.376,1.376,0,0,1-1.368-1.143l-.079-1.4s-.569,1.4-1.43,1.406l-14.05-.7V-89.9a.693.693,0,0,1-.622-.68.693.693,0,0,1,.622-.678v-.012l.079,0,.009,0h.006ZM50.013-86.3a1.408,1.408,0,0,1,1.421-1.4,1.411,1.411,0,0,1,1.424,1.4,1.411,1.411,0,0,1-1.424,1.4A1.409,1.409,0,0,1,50.013-86.3Zm.429,3.089a1.409,1.409,0,0,1,1.423-1.4,1.407,1.407,0,0,1,1.421,1.4,1.408,1.408,0,0,1-1.421,1.4A1.41,1.41,0,0,1,50.442-83.214Z" transform="translate(-0.099 125.624)" fill="none"/>
    </clipPath>
    <linearGradient id="linear-gradient" y1="0.5" x2="0.583" y2="0.5" gradientUnits="objectBoundingBox">
      <stop offset="0" stop-color="#5dc7d9"/>
      <stop offset="0.1" stop-color="#58bbcd"/>
      <stop offset="0.2" stop-color="#52afc0"/>
      <stop offset="0.3" stop-color="#4da2b3"/>
      <stop offset="0.4" stop-color="#4796a6"/>
      <stop offset="0.5" stop-color="#428999"/>
      <stop offset="0.6" stop-color="#3c7d8d"/>
      <stop offset="0.7" stop-color="#377180"/>
      <stop offset="0.8" stop-color="#316473"/>
      <stop offset="0.9" stop-color="#2c5866"/>
      <stop offset="1" stop-color="#264b59"/>
    </linearGradient>
  </defs>
  <g id="Group_1006" data-name="Group 1006" transform="translate(0 125.624)">
    <path id="Path_7322" data-name="Path 7322" d="M6.925-6.267H0V-21.578c0-2.438,3.42-2.134,3.42-2.134v14.5H9.179s.458,2.948-2.254,2.948" transform="translate(0 -2.192)" fill="#42738d"/>
    <path id="Path_7323" data-name="Path 7323" d="M17.98-11.884c-3.393,0-4.312.827-4.312,1.94a1.48,1.48,0,0,0,1.577,1.5,2.956,2.956,0,0,0,2.735-3.1Zm.395,3.541s-2.262,2.429-4.208,2.429a3.491,3.491,0,0,1-3.736-3.67c0-3.05,2.973-4.47,7.549-4.47v-.467c0-1.551-.605-2.248-2.34-2.248a9.271,9.271,0,0,0-1.954.248,12.3,12.3,0,0,0-1.993.63,2.274,2.274,0,0,1,1.845-3.182,14.954,14.954,0,0,1,2.548-.229c4.052,0,5.261,1.654,5.261,4.523v5.3c0,1.033.025,2.248.1,3.307,0,0-3.077.722-3.077-2.171" transform="translate(-0.224 -2.287)" fill="#42738d"/>
    <path id="Path_7324" data-name="Path 7324" d="M25.7-19.011h9.129l-6.8,9.848c.552-.027,3.042-.027,4.016-.027H34.33s.362,3.024-2.376,3.024H22.3l6.827-9.925h-6.24c0-3.371,2.8-2.921,2.8-2.921" transform="translate(-0.48 -2.293)" fill="#42738d"/>
    <path id="Path_7325" data-name="Path 7325" d="M41.392-16.845c-1.395,0-2.394,1.008-2.578,2.688h4.839c.053-1.758-.842-2.688-2.261-2.688M44.421-6.164a10.259,10.259,0,0,1-2.685.328c-4.13,0-6.367-2.119-6.367-6.641,0-3.851,2.314-6.8,6.208-6.8,3.813,0,5.418,2.4,5.418,5.452a11.651,11.651,0,0,1-.132,1.863H38.788c0,2.273,1.078,3.462,3.6,3.462a10.4,10.4,0,0,0,3.789-.75,2.4,2.4,0,0,1-1.759,3.083" transform="translate(-0.761 -2.288)" fill="#42738d"/>
    <path id="Path_7326" data-name="Path 7326" d="M52.121-19.016c-.019.373-.053,1.461,0,2.3l.025.025a4.692,4.692,0,0,1,4.314-2.584,3.353,3.353,0,0,1,3.6,2.558,4.667,4.667,0,0,1,4.261-2.558c2.526,0,3.92,1.369,3.92,4.264v6.873s.041,2.166-3.365,2.166v-8.314c0-1.371-.318-2.224-1.553-2.224-1.473,0-3,1.682-3,4.186v4.272s.359,2.08-3.314,2.08v-8.342c0-1.266-.262-2.2-1.551-2.2-1.553,0-3,1.785-3,4.186v4.1s.385,2.252-3.367,2.252V-17c0-2.216,3.027-2.015,3.027-2.015" transform="translate(-1.056 -2.288)" fill="#42738d"/>
    <path id="Path_7327" data-name="Path 7327" d="M105.173-6.267h10.042V-21.578c0-2.438-3.423-2.134-3.423-2.134v14.5h-8.876s-.457,2.948,2.256,2.948" transform="translate(-2.213 -2.192)" fill="#42738d"/>
    <path id="Path_7328" data-name="Path 7328" d="M106.732-22.189l3.309,11.671h-3.457l-3.792-13.2s3.321-.537,3.939,1.532" transform="translate(-2.211 -2.191)" fill="#42738d"/>
    <path id="Path_7329" data-name="Path 7329" d="M94.748-.438A2.36,2.36,0,0,1,91.976-3h2.07c1.742,0,2.767-.8,2.767-3.522V-19.317s3.38-.268,3.38,2V-6.7c0,3.03-1.012,5.776-5.445,6.26" transform="translate(-1.978 -2.286)" fill="#42738d"/>
    <path id="Path_7330" data-name="Path 7330" d="M96.919-23.308v3.343h3.38V-21.3c0-2.272-3.38-2-3.38-2" transform="translate(-2.085 -2.201)" fill="#42738d"/>
    <path id="Path_7331" data-name="Path 7331" d="M89.133-13.039c0-2.516-1.026-3.574-2.741-3.574-1.92,0-3.047,1.435-3.047,3.4,0,2.365.074,4.427,3.842,4.427h1.947ZM76.018-.533l-.4-2.533L74.74-8.508c-.565-3.574.743-6.066,4.84-6.066h.614c.59-2.618,2.765-4.655,6.427-4.655,4.022,0,5.79,2.264,5.79,5.786V-6.17H86.8c-5.832,0-6.429-2.792-6.761-5.786h-.563c-1.485,0-1.9.83-1.511,3.193l.792,4.83s.883,2.982-2.741,3.4" transform="translate(-1.605 -2.289)" fill="#42738d"/>
    <path id="Path_7332" data-name="Path 7332" d="M57.185-57.481A13.807,13.807,0,0,0,51.607-56c-4.9,2.3-8.94,5.012-15.818,7.538-2.622.964-5.671,2.069-2.925,3.939,1.407.958,3.787,2.847,11.652-.425,7.109-2.957,12.445-4.535,18.818-1.19,0,0,2.16,1.058,2.247,2.817.053,1.07-.864,2.035-4.989,2.126a9.7,9.7,0,0,0-4.485,1.819c-1.934,1.577-3.55,1.5-5.391,1.8-2.408.4-3.723,1.439-3.673,2.705.032.816.338,1.59,2.006,2.407A16.947,16.947,0,0,0,54.9-31.218a27.619,27.619,0,0,0,3.587-.217A39.415,39.415,0,0,0,82.585-43.26c5.3-5.673,22.127-25.473,22.127-25.473-6.783,7.939-17.384,14.767-23.889,15.76a25.109,25.109,0,0,1-9.807-.506s-1.232-.318-6.6-2.376a23.382,23.382,0,0,0-7.229-1.626" transform="translate(-0.684 -1.224)" fill="#ed1748"/>
    <g id="Group_1003" data-name="Group 1003" transform="translate(0.097 -125.624)" clip-path="url(#clip-path)">
      <g id="Group_1002" data-name="Group 1002" transform="translate(112.905) rotate(90)">
        <path id="Path_7333" data-name="Path 7333" d="M0,113V0H122.922V113Z" fill="url(#linear-gradient)"/>
      </g>
    </g>
  </g>
</svg>
