<svg xmlns="http://www.w3.org/2000/svg" xmlns:xlink="http://www.w3.org/1999/xlink" width="95.178" height="99.158" viewBox="0 0 95.178 99.158">
  <defs>
    <linearGradient id="linear-gradient" x1="0.5" x2="0.5" y2="1" gradientUnits="objectBoundingBox">
      <stop offset="0" stop-color="#fff" stop-opacity="0"/>
      <stop offset="0.268" stop-color="#fefefe" stop-opacity="0.012"/>
      <stop offset="0.409" stop-color="#fbfdfe" stop-opacity="0.043"/>
      <stop offset="0.521" stop-color="#f5fbfc" stop-opacity="0.102"/>
      <stop offset="0.617" stop-color="#eef9fa" stop-opacity="0.184"/>
      <stop offset="0.703" stop-color="#e4f5f8" stop-opacity="0.29"/>
      <stop offset="0.782" stop-color="#d8f1f5" stop-opacity="0.424"/>
      <stop offset="0.855" stop-color="#caecf2" stop-opacity="0.576"/>
      <stop offset="0.925" stop-color="#b9e6ee" stop-opacity="0.761"/>
      <stop offset="0.988" stop-color="#a7e0e9" stop-opacity="0.961"/>
      <stop offset="1" stop-color="#a4dfe9"/>
    </linearGradient>
    <linearGradient id="linear-gradient-2" x1="0.5" y1="-0.582" x2="0.5" y2="-1.589" gradientUnits="objectBoundingBox">
      <stop offset="0"/>
      <stop offset="1" stop-opacity="0"/>
    </linearGradient>
    <linearGradient id="linear-gradient-3" x1="0" y1="-0.733" x2="1" y2="-0.733" xlink:href="#linear-gradient-2"/>
    <linearGradient id="linear-gradient-4" x1="-1.486" y1="-1.576" x2="11.942" y2="-1.755" gradientUnits="objectBoundingBox">
      <stop offset="0.035" stop-color="#9d9eb3"/>
      <stop offset="0.581" stop-color="#d4d1d8"/>
      <stop offset="1" stop-color="#eeebf2"/>
    </linearGradient>
    <linearGradient id="linear-gradient-5" x1="0.578" y1="-5.466" x2="0.489" y2="-4.953" xlink:href="#linear-gradient-2"/>
    <linearGradient id="linear-gradient-6" x1="2620.229" y1="-35.52" x2="2624.552" y2="-36.187" gradientUnits="objectBoundingBox">
      <stop offset="0.035" stop-color="#271273"/>
      <stop offset="0.295" stop-color="#351c82"/>
      <stop offset="0.796" stop-color="#5d39aa"/>
      <stop offset="0.98" stop-color="#6d45bb"/>
    </linearGradient>
    <linearGradient id="linear-gradient-7" y1="-5.959" x2="1" y2="-5.959" gradientUnits="objectBoundingBox">
      <stop offset="0" stop-color="#fff"/>
      <stop offset="0.163" stop-color="#fbfdfd"/>
      <stop offset="0.32" stop-color="#eff8fa"/>
      <stop offset="0.474" stop-color="#dcf1f4"/>
      <stop offset="0.627" stop-color="#c1e6ed"/>
      <stop offset="0.778" stop-color="#9ed8e3"/>
      <stop offset="0.927" stop-color="#73c7d6"/>
      <stop offset="1" stop-color="#5cbed0"/>
    </linearGradient>
    <linearGradient id="linear-gradient-8" y1="-13.63" x2="1" y2="-13.63" gradientUnits="objectBoundingBox">
      <stop offset="0" stop-color="#fff"/>
      <stop offset="0.276" stop-color="#fcfefe"/>
      <stop offset="0.432" stop-color="#f4fafb"/>
      <stop offset="0.56" stop-color="#e6f5f7"/>
      <stop offset="0.671" stop-color="#d2edf2"/>
      <stop offset="0.772" stop-color="#b8e3ea"/>
      <stop offset="0.865" stop-color="#99d6e1"/>
      <stop offset="0.951" stop-color="#74c7d7"/>
      <stop offset="1" stop-color="#5cbed0"/>
    </linearGradient>
    <linearGradient id="linear-gradient-9" x1="0" y1="-16.603" x2="1" y2="-16.603" xlink:href="#linear-gradient-8"/>
    <linearGradient id="linear-gradient-10" x1="0.869" y1="0.81" x2="0.25" y2="0.255" gradientUnits="objectBoundingBox">
      <stop offset="0.091" stop-color="#10054d"/>
      <stop offset="0.894" stop-color="#270656"/>
    </linearGradient>
    <linearGradient id="linear-gradient-11" x1="1.006" y1="0.705" x2="0.024" y2="0.224" xlink:href="#linear-gradient-10"/>
    <linearGradient id="linear-gradient-12" y1="0.5" x2="1" y2="0.5" gradientUnits="objectBoundingBox">
      <stop offset="0" stop-color="#5cbed0"/>
      <stop offset="1" stop-color="#2d5565"/>
    </linearGradient>
    <linearGradient id="linear-gradient-13" y1="74.484" x2="1" y2="74.484" gradientUnits="objectBoundingBox">
      <stop offset="0.005" stop-color="#f9b69e"/>
      <stop offset="0.812" stop-color="#fcd6c1"/>
      <stop offset="1" stop-color="#fedfcb"/>
    </linearGradient>
    <linearGradient id="linear-gradient-15" x1="0.129" y1="1.001" x2="0.775" y2="0.066" gradientUnits="objectBoundingBox">
      <stop offset="0" stop-color="#d4d1d8"/>
      <stop offset="1" stop-color="#fff"/>
    </linearGradient>
    <linearGradient id="linear-gradient-16" x1="0.5" y1="0.389" x2="0.5" y2="-0.004" gradientUnits="objectBoundingBox">
      <stop offset="0" stop-color="#fff"/>
      <stop offset="1" stop-color="#bcbec0"/>
    </linearGradient>
    <linearGradient id="linear-gradient-17" x1="0.954" y1="0.512" x2="-0.344" y2="0.478" xlink:href="#linear-gradient-10"/>
    <radialGradient id="radial-gradient" cx="0.208" cy="0.398" r="0.528" gradientTransform="translate(-0.114 11.801) scale(1.549 1.2)" gradientUnits="objectBoundingBox">
      <stop offset="0.03" stop-color="#fedfcb"/>
      <stop offset="1" stop-color="#f9b69e"/>
    </radialGradient>
    <linearGradient id="linear-gradient-19" x1="0" y1="0.5" x2="1" y2="0.5" xlink:href="#linear-gradient-2"/>
    <linearGradient id="linear-gradient-20" x1="0.972" y1="0.69" x2="0" y2="0.364" xlink:href="#linear-gradient-13"/>
    <linearGradient id="linear-gradient-22" x1="0" y1="0.5" x2="1" y2="0.5" xlink:href="#linear-gradient-2"/>
  </defs>
  <g id="Group_11495" data-name="Group 11495" transform="translate(-176.733 -994.682)">
    <circle id="Ellipse_83" data-name="Ellipse 83" cx="47.589" cy="47.589" r="47.589" transform="translate(176.733 998.662)" fill="url(#linear-gradient)"/>
    <g id="Group_11494" data-name="Group 11494" transform="translate(196.268 994.682)">
      <g id="Group_11492" data-name="Group 11492">
        <g id="Group_11490" data-name="Group 11490">
          <g id="Group_11484" data-name="Group 11484" transform="translate(10.446)" style="mix-blend-mode: multiply;isolation: isolate">
            <path id="Path_35223" data-name="Path 35223" d="M227.723,1060.875l1.8.564v-66.2l-1.8-.558Z" transform="translate(-227.723 -994.682)" opacity="0.1" fill="url(#linear-gradient-2)" style="mix-blend-mode: multiply;isolation: isolate"/>
            <path id="Path_35224" data-name="Path 35224" d="M283.391,1014.065v3.458L230.8,1001.077V1043.7l52.594,16.372v20.188l1.8.564v-66.2Z" transform="translate(-228.99 -997.317)" opacity="0.1" fill="url(#linear-gradient-3)" style="mix-blend-mode: multiply;isolation: isolate"/>
          </g>
          <g id="Group_11485" data-name="Group 11485" transform="translate(0 64.16)">
            <path id="Path_35225" data-name="Path 35225" d="M211.737,1119.687v2.041l-1.78-.548v-2.041Z" transform="translate(-209.957 -1110.123)" fill="#43758e"/>
            <path id="Path_35226" data-name="Path 35226" d="M212.976,1113.761v2.041l10.659-9.013v-2.035Z" transform="translate(-211.201 -1104.196)" fill="#43758e"/>
            <path id="Path_35227" data-name="Path 35227" d="M222.391,1104.363l-10.659,9.008-1.775-.55,10.668-9.016Z" transform="translate(-209.957 -1103.805)" fill="#5cbed0"/>
          </g>
          <g id="Group_11486" data-name="Group 11486" transform="translate(3.964 2.13)">
            <path id="Path_35228" data-name="Path 35228" d="M219.756,1000.792v66.2l1.817-1.532v-66.2Z" transform="translate(-217.958 -998.698)" fill="#43758e"/>
            <path id="Path_35229" data-name="Path 35229" d="M218.5,1001.472v66.2l-1.8-.564v-66.193Z" transform="translate(-216.699 -999.38)" fill="#5cbed0"/>
            <path id="Path_35230" data-name="Path 35230" d="M216.7,999.839l1.8.558,1.812-1.531-1.812-.561Z" transform="translate(-216.699 -998.305)" fill="#43758e"/>
          </g>
          <g id="Group_11487" data-name="Group 11487" transform="translate(5.771 5.777)">
            <path id="Path_35231" data-name="Path 35231" d="M309.431,1034.176v42.547l1.975-1.607V1032.5Z" transform="translate(-256.715 -1016.04)" fill="url(#linear-gradient-4)"/>
            <path id="Path_35232" data-name="Path 35232" d="M272.5,1023.8v42.548l-52.726-16.413v-42.621Z" transform="translate(-219.773 -1005.662)" fill="#fff"/>
            <path id="Path_35233" data-name="Path 35233" d="M219.773,1006.155l52.726,16.487,1.965-1.678-52.744-16.456Z" transform="translate(-219.773 -1004.508)" opacity="0.1" fill="url(#linear-gradient-5)" style="mix-blend-mode: multiply;isolation: isolate"/>
          </g>
          <g id="Group_11488" data-name="Group 11488" transform="translate(54.401 80.908)">
            <path id="Path_35234" data-name="Path 35234" d="M304.261,1148.171v2.041l-1.78-.548v-2.041Z" transform="translate(-302.482 -1138.608)" fill="url(#linear-gradient-6)"/>
            <path id="Path_35235" data-name="Path 35235" d="M305.5,1142.246v2.041l10.659-9.013v-2.035Z" transform="translate(-303.725 -1132.68)" fill="#43758e"/>
            <path id="Path_35236" data-name="Path 35236" d="M314.915,1132.847l-10.659,9.008-1.775-.55,10.668-9.016Z" transform="translate(-302.482 -1132.29)" fill="#43758e"/>
          </g>
          <g id="Group_11489" data-name="Group 11489" transform="translate(58.365 18.878)">
            <path id="Path_35237" data-name="Path 35237" d="M312.28,1029.276v66.2l1.817-1.532v-66.2Z" transform="translate(-310.483 -1027.183)" fill="#5cbed0"/>
            <path id="Path_35238" data-name="Path 35238" d="M311.025,1029.957v66.2l-1.8-.564V1029.4Z" transform="translate(-309.223 -1027.865)" fill="#5cbed0"/>
            <path id="Path_35239" data-name="Path 35239" d="M309.223,1028.324l1.8.558,1.812-1.531-1.812-.561Z" transform="translate(-309.223 -1026.79)" fill="#5cbed0"/>
          </g>
          <path id="Path_35240" data-name="Path 35240" d="M311.708,1030.243v66.091l.341.169v-66.121Z" transform="translate(-251.882 -1009.334)" fill="#5cbed0"/>
        </g>
        <path id="Path_35241" data-name="Path 35241" d="M226.392,1059.238v6.534l44.618,13.817v-25.43c0-.808-.781-1.177-1.554-.734l-6.331,3.631a6.544,6.544,0,0,1-4.847.836l-4.354-1.14a5.643,5.643,0,0,0-3.669.394l-1.975.867a3.61,3.61,0,0,1-4.36-.695l-.549-.666c-1.076-1.3-3-1.589-4.884-.724l-2.9,1.331a18.237,18.237,0,0,1-5.594,1.585Z" transform="translate(-216.729 -1018.808)" fill="#ef1d4a"/>
        <path id="Path_35242" data-name="Path 35242" d="M272.529,1040.641l-4.334,1.643.2.579-7.724,4.264-8.388-1.882-6.611,2.82-3.9-4.317-8.9,3.959-6.353.765-.072.444,6.432-.775,8.68-3.862,3.894,4.313,6.749-2.879,8.333,1.87.084.019,7.9-4.363.3.861Z" transform="translate(-216.754 -1013.619)" fill="#5cbed0"/>
        <path id="Path_35243" data-name="Path 35243" d="M226.392,1072.2v1.184L271.01,1087.2v-3.586l-2.512-3.592a1.534,1.534,0,0,0-2.011-.326l-1.282.64a4.142,4.142,0,0,1-4.888-.427l-4.688-4.769a4.392,4.392,0,0,0-3.718-1.186l-3.537.406a3.785,3.785,0,0,1-3.42-1.228l-.405-.48a3,3,0,0,0-3.177-.807l-5.3,1.455a4.861,4.861,0,0,1-2.058.135Z" transform="translate(-216.729 -1026.417)" fill="url(#linear-gradient-7)"/>
        <path id="Path_35244" data-name="Path 35244" d="M272.358,1031.341l-17.981-5.577v1.465l17.981,5.577Z" transform="translate(-228.259 -1007.489)" fill="url(#linear-gradient-8)"/>
        <path id="Path_35245" data-name="Path 35245" d="M271.451,1036.046l-14.044-4.356v1.465l14.044,4.356Z" transform="translate(-229.508 -1009.931)" fill="url(#linear-gradient-9)"/>
        <g id="Group_11491" data-name="Group 11491" transform="translate(10.215 15.442)">
          <path id="Path_35246" data-name="Path 35246" d="M233.262,1030.838l2.026,7.014c-3.074.332-6.473-2.539-7.592-6.413a7.922,7.922,0,0,1-.267-3.588Z" transform="translate(-227.331 -1023.791)" fill="#5cbed0"/>
          <path id="Path_35247" data-name="Path 35247" d="M237.418,1032.931l5.129,4.987a3.907,3.907,0,0,1-3.1,2.027Z" transform="translate(-231.487 -1025.884)" fill="#ef1d4a"/>
          <path id="Path_35248" data-name="Path 35248" d="M237.418,1030.109l3.807-4.027c2.225,2.832,2.775,6.578,1.322,9.015Z" transform="translate(-231.487 -1023.061)" fill="#ef1d4a"/>
          <path id="Path_35249" data-name="Path 35249" d="M237.418,1028.168v-6.8a7.7,7.7,0,0,1,3.807,2.769Z" transform="translate(-231.487 -1021.121)" fill="#ef1d4a"/>
          <path id="Path_35250" data-name="Path 35250" d="M233.33,1027.992l-5.833-2.986c.5-3.127,2.928-4.71,5.833-3.811Z" transform="translate(-227.399 -1020.945)" fill="#ef1d4a"/>
        </g>
      </g>
      <g id="Group_11493" data-name="Group 11493" transform="translate(21.079 21.601)">
        <path id="Path_35251" data-name="Path 35251" d="M265.669,1142.97l2.489.2s.651,2.282.076,2.726a21.224,21.224,0,0,1-2.374,1.269c-1.265.69-2.344.924-3.148.426s-.643-1.052.353-1.724S265.574,1144.313,265.669,1142.97Z" transform="translate(-252.562 -1077.383)" fill="url(#linear-gradient-10)"/>
        <path id="Path_35252" data-name="Path 35252" d="M285.57,1149.976l2.336-.047s.044,1.979.044,2.63-.5.91-.957,1.365a2.69,2.69,0,0,1-1.949.975c-.88.063-2.072-.206-1.766-1.1s1.642-1.62,1.8-2.1C285.27,1151.134,285.57,1149.976,285.57,1149.976Z" transform="translate(-261.227 -1080.25)" fill="url(#linear-gradient-11)"/>
        <path id="Path_35253" data-name="Path 35253" d="M266.828,1120.556l3.4.253s1.072-8.82,1.225-10.146a33.8,33.8,0,0,0-.345-5.049l1.532-9.657s2.507,13.218,2.66,14.151,2.548,14.676,2.548,14.676l3.382.065s-.459-7.932-.881-10.652a65.95,65.95,0,0,1-.587-10.254,59.294,59.294,0,0,0-.574-10.7c-.5-2.076-.919-4.988-.919-4.988l-10.763-1.436a45.248,45.248,0,0,0-1.355,11.9c.306,5.581.516,8.273.593,11.8S266.828,1120.556,266.828,1120.556Z" transform="translate(-254.175 -1054.247)" fill="url(#linear-gradient-12)"/>
        <path id="Path_35254" data-name="Path 35254" d="M249.735,1037.637a6.7,6.7,0,0,0-1.111-.947,5.319,5.319,0,0,1-2.106-2.229c-.383-1.032-.881-2.074-.651-2.474s1.762-.982,2.336-.124a38.9,38.9,0,0,1,2.489,3.375,3.444,3.444,0,0,0,.651,1.095Z" transform="translate(-245.809 -1031.421)" fill="url(#linear-gradient-13)"/>
        <path id="Path_35255" data-name="Path 35255" d="M250.941,1040.568l2.264-1.808s5.2,5.637,5.767,6.256a36.224,36.224,0,0,0,3.106,2.957c.734.521,2.894,2.047,2.894,2.047l-3.666,4.3s-2.967-4.233-4.179-5.949C256.591,1047.608,250.941,1040.568,250.941,1040.568Z" transform="translate(-247.923 -1034.445)" fill="url(#linear-gradient-12)"/>
        <path id="Path_35256" data-name="Path 35256" d="M271.342,1056.853c-1.11-.143-2.475.435-3.2,2.816s.19,7.451,0,9.73-.811,7.09-.811,7.09l12.143,1.881s-.4-5.736.293-8.006,2.933-6.842,2.474-8.11a5.258,5.258,0,0,0-2.451-2.721,24.991,24.991,0,0,0-3.592-1.8Z" transform="translate(-254.676 -1041.891)" fill="url(#linear-gradient-15)"/>
        <path id="Path_35257" data-name="Path 35257" d="M273.427,1064.531l2.489-.955,1.476,1.476,1.939-1.158-2.749,8.247-3.443-.405Z" transform="translate(-257.069 -1044.67)" fill="url(#linear-gradient-16)" style="mix-blend-mode: multiply;isolation: isolate"/>
        <path id="Path_35258" data-name="Path 35258" d="M276.735,1063.577l.521.492-.376.405-.51,11.713-.694,3.125-.55-3.1,1.146-11.771-.231-.608Z" transform="translate(-257.888 -1044.67)" fill="url(#linear-gradient-17)"/>
        <path id="Path_35259" data-name="Path 35259" d="M281.714,1061.93a5.26,5.26,0,0,0-2.451-2.72,25.542,25.542,0,0,0-3.9-1.862l-4.97-1.43c-1.111-.143-2.513.987-3.24,3.369s.1,6.865-.091,9.144-1.761,11.3-1.761,11.3l1.789.242a3.409,3.409,0,0,0,3.748-2.5,20.332,20.332,0,0,0,.52-5.115c0-3.86-1.466-11.806.077-13.928.756-1.038,3.742-1.08,4.514-.694s1.1.449.077,2.2c-1.466,2.508-4,8.1-3.829,12.423a29.468,29.468,0,0,0,.593,5.774,3.4,3.4,0,0,0,3.538,2.567l3.441-.238s-.977-7.34-.54-10.225C279.579,1067.9,282.173,1063.2,281.714,1061.93Z" transform="translate(-253.838 -1041.51)" fill="url(#linear-gradient-12)"/>
        <path id="Path_35260" data-name="Path 35260" d="M275.1,1044.071c-1.522.083-2.648.77-3.015,3.448s-.2,3.944.373,4.314,1.281.164,1.74,1.012a1.926,1.926,0,0,1,.24,1.107c-.026.3.907,1.47.907,1.47s1.728-.65,2.286-.868a3.633,3.633,0,0,0,1.461-.916,6.526,6.526,0,0,1-.833-2.118c.029-.629,1.379-2.942.833-4.745A4.228,4.228,0,0,0,275.1,1044.071Z" transform="translate(-256.554 -1036.631)" fill="url(#radial-gradient)"/>
        <path id="Path_35261" data-name="Path 35261" d="M273.109,1043.822a1.17,1.17,0,0,0,.344,2.091,3.446,3.446,0,0,1,1.6.8,6.91,6.91,0,0,0,1.493,1.328s.843-.648,1.455-.092-.23,1.931-.23,1.931l.857,1.022s1.685-2.324,1.393-4.292C279.572,1043.563,275.619,1042.138,273.109,1043.822Z" transform="translate(-256.847 -1036.235)" fill="#231f20"/>
        <path id="Path_35262" data-name="Path 35262" d="M283.771,1084.43l3.441-.238s-.977-7.34-.54-10.225c.355-2.346,2.949-7.046,2.489-8.314-.256-.707-3.8-1.19-4.071.058-.656,3.047-1.389,5.092-1,10.108a39.673,39.673,0,0,1-.716,8.612A3.3,3.3,0,0,0,283.771,1084.43Z" transform="translate(-261.286 -1045.232)" opacity="0.1" fill="url(#linear-gradient-19)" style="mix-blend-mode: multiply;isolation: isolate"/>
        <path id="Path_35263" data-name="Path 35263" d="M286.469,1092.674a4.211,4.211,0,0,0-2.5,3.957c-.031.811,0,1.753.814,1.893s1.315-.564,1.5-1.235a14.463,14.463,0,0,1,1.44-2.462,2.646,2.646,0,0,0,.282-.912Z" transform="translate(-261.528 -1056.659)" fill="url(#linear-gradient-20)"/>
        <path id="Path_35264" data-name="Path 35264" d="M287.129,1063.634c-.953.558-1.406,2.541-.181,4.265s4.7,5.85,4.7,5.85l-4.624,6.951,2.3,1.619s4.817-5.578,5.161-6.082,1.187-1.534.651-2.542-3.868-7.577-4.442-8.652C289.807,1063.388,288.63,1062.755,287.129,1063.634Z" transform="translate(-262.453 -1044.53)" fill="url(#linear-gradient-12)"/>
        <path id="Path_35265" data-name="Path 35265" d="M274.331,1098.011s-2.045,9.375-2.045,11.15.579,4.9.309,6.867c-.2,1.456-.864,6.691-1.2,9.316l1.007.075s1.072-8.821,1.225-10.147a33.8,33.8,0,0,0-.345-5.049l1.532-9.657Z" transform="translate(-256.353 -1058.858)" opacity="0.1" fill="url(#linear-gradient-22)" style="mix-blend-mode: multiply;isolation: isolate"/>
      </g>
    </g>
  </g>
</svg>
