<svg xmlns="http://www.w3.org/2000/svg" width="81" height="81" viewBox="0 0 81 81">
  <g id="Group211882" transform="translate(-997 -1011)">
    <circle id="Ellipse_93" data-name="Ellipse 93" cx="40.5" cy="40.5" r="40.5" transform="translate(997 1011)" fill="#f01c4a" opacity="0.1"/>
    <path id="USER_OK" data-name="USER / OK" d="M582.527,901a1.832,1.832,0,0,1-2.59,0l-2.442-2.442a1.831,1.831,0,0,1,2.59-2.59l1.147,1.146,3.588-3.588h0a1.831,1.831,0,1,1,2.59,2.59Zm-1.309-6.461a3.656,3.656,0,0,0-5.018,5.314l2.442,2.442a3.7,3.7,0,0,0,.57.463h-28.5a1.832,1.832,0,0,1-1.832-1.832v0h0s0-6.674,4.876-9.1c3.086-1.535,1.9-.289,5.686-1.86a43.7,43.7,0,0,0,4.685-2.116l.036-3.616s-1.419-1.085-1.86-4.488c-.888.257-1.181-1.043-1.233-1.869-.048-.8-.514-3.294.569-3.069a22.05,22.05,0,0,1-.3-3.964c.271-2.794,2.963-5.713,7.108-5.926,4.876.213,6.807,3.13,7.078,5.924a22.223,22.223,0,0,1-.316,3.962c1.083-.222.613,2.269.56,3.068-.048.827-.348,2.121-1.233,1.866-.443,3.4-1.861,4.479-1.861,4.479l.033,3.6s.9.512,4.685,2.081,2.6.4,5.686,1.932c.2.1.364.222.545.334-.029.027-.064.048-.092.076Zm6.426,3.933a13.371,13.371,0,0,1,.3,2.449h0v0a1.832,1.832,0,0,1-1.831,1.832h-2.864a3.674,3.674,0,0,0,.57-.463Z" transform="translate(470.302 164.665)" fill="#ef1d4a" fill-rule="evenodd"/>
  </g>
</svg>
