<svg xmlns="http://www.w3.org/2000/svg" width="27.473" height="21.976" viewBox="0 0 27.473 21.976">
  <g id="Group_11864" data-name="Group 11864" transform="translate(-2 -4)">
    <g id="Group_11860" data-name="Group 11860" transform="translate(2 4)">
      <path id="Path_36882" data-name="Path 36882" d="M3,10.495l12.363,5.495,12.363-5.495L15.363,5Z" transform="translate(-1.626 -3.626)" fill="#67cada"/>
      <path id="Path_36883" data-name="Path 36883" d="M15.736,17.736a1.383,1.383,0,0,1-.558-.118L2.816,12.124a1.374,1.374,0,0,1,0-2.511L15.179,4.118a1.372,1.372,0,0,1,1.115,0L28.657,9.613a1.374,1.374,0,0,1,0,2.511L16.294,17.618A1.383,1.383,0,0,1,15.736,17.736ZM6.756,10.868l8.981,3.992,8.981-3.992L15.736,6.876Z" transform="translate(-2 -4)" fill="#67cada"/>
    </g>
    <g id="Group_11861" data-name="Group 11861" transform="translate(2 9.495)">
      <path id="Path_36884" data-name="Path 36884" d="M3.374,17.615A1.373,1.373,0,0,1,2,16.242V9.374a1.374,1.374,0,0,1,2.747,0v6.868A1.373,1.373,0,0,1,3.374,17.615Z" transform="translate(-2 -8)" fill="#67cada"/>
    </g>
    <g id="Group_11862" data-name="Group 11862" transform="translate(2 20.484)">
      <path id="Path_36885" data-name="Path 36885" d="M3.374,20.121A1.373,1.373,0,0,1,2,18.747V17.374a1.374,1.374,0,0,1,2.747,0v1.374A1.373,1.373,0,0,1,3.374,20.121Z" transform="translate(-2 -16)" fill="#67cada"/>
    </g>
    <g id="Group_11863" data-name="Group 11863" transform="translate(6.121 15.835)">
      <path id="Path_36886" data-name="Path 36886" d="M15.916,16.535a4.118,4.118,0,0,1-3.349,0L6,13.616v5.449a18.425,18.425,0,0,0,16.484,0V13.616Z" transform="translate(-4.626 -12.242)" fill="#67cada"/>
      <path id="Path_36887" data-name="Path 36887" d="M14.558,22.756A20.155,20.155,0,0,1,5.78,20.678,1.374,1.374,0,0,1,5,19.439V13.99a1.373,1.373,0,0,1,1.931-1.254L13.5,15.655a2.8,2.8,0,0,0,2.232,0h0L22.3,12.736a1.373,1.373,0,0,1,1.931,1.254v5.449a1.375,1.375,0,0,1-.794,1.246A20.906,20.906,0,0,1,14.558,22.756Zm-6.81-4.2a16.778,16.778,0,0,0,13.736-.01V16.1l-4.636,2.06a5.516,5.516,0,0,1-4.464,0L7.747,16.1Z" transform="translate(-5 -12.616)" fill="#67cada"/>
    </g>
  </g>
</svg>
