<svg xmlns="http://www.w3.org/2000/svg" xmlns:xlink="http://www.w3.org/1999/xlink" width="81" height="81" viewBox="0 0 81 81">
  <defs>
    <linearGradient id="linear-gradient" y1="0.5" x2="1" y2="0.5" gradientUnits="objectBoundingBox">
      <stop offset="0" stop-color="#5cbed0"/>
      <stop offset="1" stop-color="#2d5565"/>
    </linearGradient>
  </defs>
  <g id="Group311882" transform="translate(-690 -1003)">
    <path id="Path_36120" data-name="Path 36120" d="M40.5,0A40.5,40.5,0,1,1,0,40.5,40.5,40.5,0,0,1,40.5,0Z" transform="translate(690 1003)" fill="#4ba0a7" opacity="0.117"/>
    <path id="USER_ADD" data-name="USER / ADD" d="M434.664,897.317v0a2.066,2.066,0,0,1-2.215,1.873H431.1a3.288,3.288,0,0,0,.614-1.873,4.878,4.878,0,0,0,2.883-.922,9.175,9.175,0,0,1,.072.918Zm-2.954-1.868h-2.215v1.873a2.247,2.247,0,0,1-4.431,0v-1.873h-2.216a1.9,1.9,0,1,1,0-3.746h2.216V889.83a2.247,2.247,0,0,1,4.431,0V891.7h2.215a1.9,1.9,0,1,1,0,3.746Zm-8.862-5.619c-2.447,0-4.431,1.677-4.431,3.746s1.984,3.746,4.431,3.746a3.293,3.293,0,0,0,.614,1.873H389.613a2.066,2.066,0,0,1-2.215-1.873v0h0s0-6.824,5.9-9.306c3.733-1.57,2.3-.3,6.878-1.9a57.851,57.851,0,0,0,5.668-2.164l.043-3.7s-1.716-1.11-2.25-4.59c-1.074.262-1.429-1.066-1.492-1.912-.058-.817-.622-3.368.689-3.138a19.153,19.153,0,0,1-.366-4.054c.329-2.857,3.584-5.842,8.6-6.061,5.9.218,8.235,3.2,8.563,6.058a19.28,19.28,0,0,1-.383,4.053c1.311-.228.741,2.32.677,3.137-.058.846-.421,2.169-1.492,1.908-.536,3.479-2.252,4.58-2.252,4.58l.04,3.68s1.085.524,5.668,2.128a23.966,23.966,0,0,0,2.725.82A3.573,3.573,0,0,0,422.848,889.83Z" transform="translate(320.693 161.405)" fill-rule="evenodd" fill="url(#linear-gradient)"/>
  </g>
</svg>
