<svg xmlns="http://www.w3.org/2000/svg" width="81" height="81" viewBox="0 0 81 81">
  <g id="Group411882" transform="translate(-393 -1003)">
    <path id="Path_36122" data-name="Path 36122" d="M40.5,0A40.5,40.5,0,1,1,0,40.5,40.5,40.5,0,0,1,40.5,0Z" transform="translate(393 1003)" fill="#e92e5b" opacity="0.117"/>
    <g id="Group_11618" data-name="Group 11618" transform="translate(204.034 171.408)">
      <path id="Path_36123" data-name="Path 36123" d="M214.966,887.7V855.487a3.579,3.579,0,0,1,3.579-3.579h19.936A3.712,3.712,0,0,1,241.106,853l6.773,6.773a3.711,3.711,0,0,1,1.088,2.625V887.7a3.579,3.579,0,0,1-3.579,3.579H218.545A3.579,3.579,0,0,1,214.966,887.7Z" fill="#ef1d4a"/>
      <path id="Path_36124" data-name="Path 36124" d="M270.966,851.908v5.368a3.579,3.579,0,0,0,3.579,3.579h5.368Z" transform="translate(-30.947)" fill="#9c1536"/>
      <g id="Group_11617" data-name="Group 11617" transform="translate(222.571 870.698)">
        <line id="Line_5" data-name="Line 5" x2="18" transform="translate(0.395 -0.105)" fill="none" stroke="#fff" stroke-linecap="round" stroke-linejoin="round" stroke-width="2"/>
        <line id="Line_6" data-name="Line 6" x2="18" transform="translate(0.395 9.895)" fill="none" stroke="#fff" stroke-linecap="round" stroke-linejoin="round" stroke-width="2"/>
      </g>
    </g>
  </g>
</svg>
