<svg xmlns="http://www.w3.org/2000/svg" xmlns:xlink="http://www.w3.org/1999/xlink" width="76.891" height="84.774" viewBox="0 0 76.891 84.774">
  <defs>
    <linearGradient id="linear-gradient" x1="0.5" y1="1" x2="0.5" gradientUnits="objectBoundingBox">
      <stop offset="0" stop-color="#fff" stop-opacity="0"/>
      <stop offset="0.155" stop-color="#fdfefe" stop-opacity="0.016"/>
      <stop offset="0.288" stop-color="#f9fdfd" stop-opacity="0.059"/>
      <stop offset="0.415" stop-color="#f2fafb" stop-opacity="0.137"/>
      <stop offset="0.536" stop-color="#e8f7f9" stop-opacity="0.243"/>
      <stop offset="0.655" stop-color="#dcf2f6" stop-opacity="0.384"/>
      <stop offset="0.77" stop-color="#ccedf2" stop-opacity="0.553"/>
      <stop offset="0.884" stop-color="#bae6ee" stop-opacity="0.757"/>
      <stop offset="0.994" stop-color="#a5dfe9" stop-opacity="0.984"/>
      <stop offset="1" stop-color="#a4dfe9"/>
    </linearGradient>
    <linearGradient id="linear-gradient-2" x1="0.5" y1="1" x2="0.5" gradientUnits="objectBoundingBox">
      <stop offset="0" stop-color="#fff" stop-opacity="0"/>
      <stop offset="0.114" stop-color="#fdfefe" stop-opacity="0.02"/>
      <stop offset="0.244" stop-color="#f7fcfd" stop-opacity="0.078"/>
      <stop offset="0.382" stop-color="#eef9fb" stop-opacity="0.176"/>
      <stop offset="0.526" stop-color="#e2f4f8" stop-opacity="0.314"/>
      <stop offset="0.674" stop-color="#d2eff4" stop-opacity="0.49"/>
      <stop offset="0.825" stop-color="#bee8ef" stop-opacity="0.71"/>
      <stop offset="0.977" stop-color="#a7e0e9" stop-opacity="0.961"/>
      <stop offset="1" stop-color="#a4dfe9"/>
    </linearGradient>
    <clipPath id="clip-path">
      <path id="Path_36515" data-name="Path 36515" d="M804.368,1222.88a.876.876,0,0,0,.307-1.073l3.623,1.971a.879.879,0,0,1-.308,1.073Z" fill="none"/>
    </clipPath>
    <clipPath id="clip-path-2">
      <path id="Path_36517" data-name="Path 36517" d="M804.675,1221.807a.569.569,0,0,0-.244-.261l3.622,1.97a.573.573,0,0,1,.245.262l-1.812-.986-.474-.258-.234-.127-.458-.249-.222-.121A1.725,1.725,0,0,1,804.675,1221.807Z" fill="none"/>
    </clipPath>
    <clipPath id="clip-path-3">
      <path id="Path_36523" data-name="Path 36523" d="M804.431,1221.546l3.622,1.97a.614.614,0,0,0-.378-.065.751.751,0,0,0-.319.129l-3.622-1.971a.731.731,0,0,1,.319-.128A.61.61,0,0,1,804.431,1221.546Z" fill="none"/>
    </clipPath>
    <clipPath id="clip-path-4">
      <path id="Path_36530" data-name="Path 36530" d="M798.675,1230.775l-3.622-1.97a.627.627,0,0,0,.371.06.712.712,0,0,0,.316-.129l3.623,1.97a.709.709,0,0,1-.316.13A.626.626,0,0,1,798.675,1230.775Z" fill="none"/>
    </clipPath>
    <clipPath id="clip-path-5">
      <path id="Path_36533" data-name="Path 36533" d="M798.675,1230.775l-3.622-1.97a.672.672,0,0,1-.33-.613l3.623,1.971A.67.67,0,0,0,798.675,1230.775Z" fill="none"/>
    </clipPath>
    <clipPath id="clip-path-6">
      <path id="Path_36536" data-name="Path 36536" d="M796.175,1207.176a.66.66,0,0,0-.329-.593l3.622,1.971a.657.657,0,0,1,.329.593Z" fill="none"/>
    </clipPath>
    <clipPath id="clip-path-7">
      <path id="Path_36540" data-name="Path 36540" d="M795.846,1206.583l3.622,1.971a.588.588,0,0,0-.369-.065l-3.623-1.97A.6.6,0,0,1,795.846,1206.583Z" fill="none"/>
    </clipPath>
    <clipPath id="clip-path-8">
      <path id="Path_36550" data-name="Path 36550" d="M798.384,1209.345l-3.622-1.97a.877.877,0,0,1,.714-.856l3.623,1.97A.881.881,0,0,0,798.384,1209.345Z" fill="none"/>
    </clipPath>
  </defs>
  <g id="Group_11750" data-name="Group 11750" transform="translate(-759.178 -1181.108)">
    <circle id="Ellipse_118" data-name="Ellipse 118" cx="33.479" cy="33.479" r="33.479" transform="translate(759.178 1181.108)" fill="url(#linear-gradient)"/>
    <path id="Path_36508" data-name="Path 36508" d="M781.589,1245.841l38.943,20.042,15.537-11.77L820.1,1231.52Z" fill="url(#linear-gradient-2)"/>
    <g id="Group_11749" data-name="Group 11749" style="isolation: isolate">
      <g id="Group_11721" data-name="Group 11721" style="isolation: isolate">
        <g id="Group_11720" data-name="Group 11720" clip-path="url(#clip-path)">
          <g id="Group_11719" data-name="Group 11719" style="isolation: isolate">
            <path id="Path_36509" data-name="Path 36509" d="M807.99,1224.851l-3.622-1.971a.749.749,0,0,0,.083-.066l3.623,1.97c-.027.024-.055.046-.084.067" fill="#931433"/>
            <path id="Path_36510" data-name="Path 36510" d="M808.074,1224.784l-3.623-1.97a.707.707,0,0,0,.072-.073l3.623,1.971a.99.99,0,0,1-.072.072" fill="#8e1331"/>
            <path id="Path_36511" data-name="Path 36511" d="M808.146,1224.712l-3.623-1.971a.7.7,0,0,0,.063-.08l3.623,1.971c-.02.028-.041.054-.063.08" fill="#891330"/>
            <path id="Path_36512" data-name="Path 36512" d="M808.209,1224.632l-3.623-1.971c.021-.03.04-.061.058-.093l3.622,1.971a.867.867,0,0,1-.057.093" fill="#85122e"/>
            <path id="Path_36513" data-name="Path 36513" d="M808.266,1224.539l-3.622-1.971a.975.975,0,0,0,.053-.119l3.623,1.971a.973.973,0,0,1-.054.119" fill="#80112c"/>
            <path id="Path_36514" data-name="Path 36514" d="M808.32,1224.42l-3.623-1.971a.818.818,0,0,0-.022-.642.569.569,0,0,0-.244-.261l3.622,1.97a.573.573,0,0,1,.245.262.818.818,0,0,1,.022.642" fill="#7b112b"/>
          </g>
        </g>
      </g>
      <g id="Group_11724" data-name="Group 11724" style="isolation: isolate">
        <g id="Group_11723" data-name="Group 11723" clip-path="url(#clip-path-2)">
          <g id="Group_11722" data-name="Group 11722" style="isolation: isolate">
            <path id="Path_36516" data-name="Path 36516" d="M808.32,1224.42l-3.623-1.971a.818.818,0,0,0-.022-.642.569.569,0,0,0-.244-.261l3.622,1.97a.573.573,0,0,1,.245.262.818.818,0,0,1,.022.642" fill="#7b112b"/>
          </g>
        </g>
      </g>
      <g id="Group_11727" data-name="Group 11727" style="isolation: isolate">
        <g id="Group_11726" data-name="Group 11726" clip-path="url(#clip-path-3)">
          <g id="Group_11725" data-name="Group 11725" style="isolation: isolate">
            <path id="Path_36518" data-name="Path 36518" d="M807.356,1223.58l-3.623-1.971,0,0,3.622,1.971,0,0" fill="#9d9d9d"/>
            <path id="Path_36519" data-name="Path 36519" d="M807.359,1223.578l-3.623-1.971a.856.856,0,0,1,.112-.065l3.623,1.971a.8.8,0,0,0-.112.065" fill="#a2a2a2"/>
            <path id="Path_36520" data-name="Path 36520" d="M807.471,1223.513l-3.623-1.971a.727.727,0,0,1,.2-.061.633.633,0,0,1,.246.013l3.622,1.97a.649.649,0,0,0-.246-.013.714.714,0,0,0-.2.062" fill="#a7a7a7"/>
            <path id="Path_36521" data-name="Path 36521" d="M807.921,1223.464l-3.622-1.97a.544.544,0,0,1,.111.041l3.622,1.97a.59.59,0,0,0-.111-.041" fill="#a2a2a2"/>
            <path id="Path_36522" data-name="Path 36522" d="M808.032,1223.505l-3.622-1.97.021.011,3.622,1.97-.021-.011" fill="#9d9d9d"/>
          </g>
        </g>
      </g>
      <g id="Group_11728" data-name="Group 11728">
        <path id="Path_36524" data-name="Path 36524" d="M799.363,1230.706l-3.622-1.971,8.627-5.856,3.622,1.971Z" fill="#a21638"/>
      </g>
      <g id="Group_11731" data-name="Group 11731" style="isolation: isolate">
        <g id="Group_11730" data-name="Group 11730" clip-path="url(#clip-path-4)">
          <g id="Group_11729" data-name="Group 11729" style="isolation: isolate">
            <path id="Path_36525" data-name="Path 36525" d="M798.675,1230.776l-3.622-1.971,0,0,3.622,1.971,0,0" fill="#931433"/>
            <path id="Path_36526" data-name="Path 36526" d="M798.679,1230.777l-3.623-1.971a.551.551,0,0,0,.121.045l3.623,1.971a.648.648,0,0,1-.121-.045" fill="#981434"/>
            <path id="Path_36527" data-name="Path 36527" d="M798.8,1230.822l-3.623-1.971a.624.624,0,0,0,.247.014.691.691,0,0,0,.2-.059l3.622,1.97a.659.659,0,0,1-.2.06.622.622,0,0,1-.247-.014" fill="#9c1536"/>
            <path id="Path_36528" data-name="Path 36528" d="M799.244,1230.776l-3.622-1.97a.811.811,0,0,0,.108-.063l3.622,1.971a.725.725,0,0,1-.108.062" fill="#981434"/>
            <path id="Path_36529" data-name="Path 36529" d="M799.352,1230.714l-3.622-1.971.01-.007,3.622,1.971-.01.007" fill="#931433"/>
          </g>
        </g>
      </g>
      <g id="Group_11732" data-name="Group 11732">
        <path id="Path_36531" data-name="Path 36531" d="M799.761,1228.741l-3.622-1.971,7.6-5.161,3.623,1.971Z" fill="#adadad"/>
      </g>
      <g id="Group_11735" data-name="Group 11735" style="isolation: isolate">
        <g id="Group_11734" data-name="Group 11734" clip-path="url(#clip-path-5)">
          <g id="Group_11733" data-name="Group 11733" style="isolation: isolate">
            <path id="Path_36532" data-name="Path 36532" d="M798.675,1230.775l-3.622-1.97a.672.672,0,0,1-.33-.613l3.623,1.971a.67.67,0,0,0,.329.612" fill="#848484"/>
          </g>
        </g>
      </g>
      <g id="Group_11736" data-name="Group 11736">
        <path id="Path_36534" data-name="Path 36534" d="M799.761,1228.741l-3.622-1.971.036-19.594,3.622,1.971Z" fill="#79102a"/>
      </g>
      <g id="Group_11739" data-name="Group 11739" style="isolation: isolate">
        <g id="Group_11738" data-name="Group 11738" clip-path="url(#clip-path-6)">
          <g id="Group_11737" data-name="Group 11737" style="isolation: isolate">
            <path id="Path_36535" data-name="Path 36535" d="M799.8,1209.147l-3.622-1.971a.66.66,0,0,0-.329-.593l3.622,1.971a.657.657,0,0,1,.329.593" fill="#7b112b"/>
          </g>
        </g>
      </g>
      <g id="Group_11742" data-name="Group 11742" style="isolation: isolate">
        <g id="Group_11741" data-name="Group 11741" clip-path="url(#clip-path-7)">
          <g id="Group_11740" data-name="Group 11740" style="isolation: isolate">
            <path id="Path_36537" data-name="Path 36537" d="M799.1,1208.489l-3.623-1.97a.6.6,0,0,1,.237.012l3.623,1.971a.626.626,0,0,0-.237-.013" fill="#a7a7a7"/>
            <path id="Path_36538" data-name="Path 36538" d="M799.336,1208.5l-3.623-1.971a.59.59,0,0,1,.111.041l3.623,1.971a.575.575,0,0,0-.111-.041" fill="#a2a2a2"/>
            <path id="Path_36539" data-name="Path 36539" d="M799.447,1208.543l-3.623-1.971.022.011,3.622,1.971-.021-.011" fill="#9d9d9d"/>
          </g>
        </g>
      </g>
      <g id="Group_11743" data-name="Group 11743">
        <path id="Path_36541" data-name="Path 36541" d="M798.346,1230.163l-3.622-1.971.039-20.818,3.622,1.971Z" fill="#818181"/>
      </g>
      <g id="Group_11746" data-name="Group 11746" style="isolation: isolate">
        <g id="Group_11745" data-name="Group 11745" clip-path="url(#clip-path-8)">
          <g id="Group_11744" data-name="Group 11744" style="isolation: isolate">
            <path id="Path_36542" data-name="Path 36542" d="M798.384,1209.345l-3.622-1.97a.847.847,0,0,1,.053-.291l3.622,1.971a.841.841,0,0,0-.053.29" fill="#848484"/>
            <path id="Path_36543" data-name="Path 36543" d="M798.437,1209.055l-3.622-1.971a.776.776,0,0,1,.053-.118l3.622,1.971a.961.961,0,0,0-.053.118" fill="#898989"/>
            <path id="Path_36544" data-name="Path 36544" d="M798.49,1208.937l-3.622-1.971a.887.887,0,0,1,.057-.093l3.623,1.971a.98.98,0,0,0-.058.093" fill="#8e8e8e"/>
            <path id="Path_36545" data-name="Path 36545" d="M798.548,1208.844l-3.623-1.971a1.025,1.025,0,0,1,.064-.081l3.623,1.97a.853.853,0,0,0-.064.082" fill="#939393"/>
            <path id="Path_36546" data-name="Path 36546" d="M798.612,1208.762l-3.623-1.97a1.007,1.007,0,0,1,.073-.074l3.623,1.97a.861.861,0,0,0-.073.074" fill="#989898"/>
            <path id="Path_36547" data-name="Path 36547" d="M798.685,1208.688l-3.623-1.97a.941.941,0,0,1,.087-.069l3.623,1.971a.839.839,0,0,0-.087.068" fill="#9d9d9d"/>
            <path id="Path_36548" data-name="Path 36548" d="M798.772,1208.62l-3.623-1.971a.746.746,0,0,1,.117-.067l3.622,1.97a.807.807,0,0,0-.116.068" fill="#a2a2a2"/>
            <path id="Path_36549" data-name="Path 36549" d="M798.888,1208.552l-3.622-1.97a.728.728,0,0,1,.21-.063l3.623,1.97a.735.735,0,0,0-.211.063" fill="#a7a7a7"/>
          </g>
        </g>
      </g>
      <g id="Group_11747" data-name="Group 11747">
        <path id="Path_36551" data-name="Path 36551" d="M799.76,1202.023c12.463-1.752,22.551,7.751,22.526,21.2-.025,13.467-10.153,25.8-22.617,27.549s-22.564-7.736-22.539-21.2S787.283,1203.776,799.76,1202.023Zm8.23,22.828a.879.879,0,0,0,.308-1.073.582.582,0,0,0-.623-.327.751.751,0,0,0-.319.129l-7.6,5.161.036-19.594a.623.623,0,0,0-.7-.658.881.881,0,0,0-.715.856l-.038,20.818a.67.67,0,0,0,.329.612.626.626,0,0,0,.372.061.709.709,0,0,0,.316-.13l8.627-5.855" fill="#cf1c48"/>
      </g>
      <g id="Group_11748" data-name="Group 11748">
        <path id="Path_36552" data-name="Path 36552" d="M799.1,1208.489a.623.623,0,0,1,.7.658l-.036,19.594,7.6-5.161a.751.751,0,0,1,.319-.129.582.582,0,0,1,.623.327.879.879,0,0,1-.308,1.073l-8.627,5.855a.709.709,0,0,1-.316.13.626.626,0,0,1-.372-.061.67.67,0,0,1-.329-.612l.038-20.818A.881.881,0,0,1,799.1,1208.489Z" fill="#fdfdfd"/>
      </g>
      <path id="Path_36553" data-name="Path 36553" d="M777.362,1226.275c.068-.549.13-1.1.231-1.64.059-.323.148-.637.218-.956.107-.481.2-.966.335-1.44.094-.34.216-.672.323-1.009.14-.443.27-.89.432-1.326.059-.159.13-.312.192-.47.217-.556.444-1.106.694-1.646.113-.246.239-.485.359-.727q.291-.59.608-1.163a29.88,29.88,0,0,1,1.628-2.641c.079-.112.167-.215.247-.326q.747-1.041,1.579-2.005c.191-.222.387-.438.584-.654q.776-.849,1.613-1.629c.193-.18.378-.371.576-.546.144-.126.293-.246.438-.369q.625-.53,1.277-1.016c.163-.122.325-.245.491-.364.4-.283.809-.546,1.22-.806.237-.149.468-.307.709-.448.478-.281.969-.535,1.463-.783.174-.088.342-.188.518-.272.63-.3,1.274-.563,1.926-.8.18-.067.362-.125.543-.187q.754-.259,1.526-.466c.2-.053.394-.107.593-.154.684-.164,1.374-.307,2.075-.406.629-.088,1.25-.14,1.866-.172.194-.01.384-.009.577-.014.424-.01.846-.01,1.263.006.214.008.427.021.638.035.4.029.806.072,1.2.125.193.024.387.047.578.078q.732.12,1.443.3c.086.021.174.035.26.057.565.147,1.118.323,1.661.519.157.057.308.123.463.184.388.152.772.315,1.147.492.319.151.639.3.948.468l-3.622-1.971q-.341-.185-.688-.356c-.085-.041-.175-.071-.26-.111-.376-.178-.759-.34-1.148-.493-.154-.06-.306-.126-.463-.183-.543-.2-1.095-.372-1.661-.519-.012,0-.023-.009-.035-.012-.074-.018-.152-.028-.226-.046-.474-.116-.954-.215-1.442-.294-.19-.032-.384-.054-.577-.08-.4-.052-.8-.094-1.2-.123-.212-.015-.425-.028-.639-.036-.417-.016-.838-.015-1.263-.005-.192.005-.383,0-.577.013-.616.032-1.237.085-1.866.173-.7.1-1.39.241-2.074.4-.2.049-.4.1-.593.156q-.772.205-1.527.466c-.181.062-.363.12-.542.186-.63.234-1.254.486-1.864.772-.021.011-.041.023-.062.033-.176.083-.343.183-.517.27-.495.248-.986.5-1.465.785-.24.14-.47.3-.706.447-.306.193-.619.374-.918.581-.1.072-.2.153-.306.226-.165.118-.326.24-.488.362q-.654.489-1.28,1.018c-.145.123-.292.242-.435.368-.073.064-.15.122-.222.187-.125.113-.233.245-.357.361q-.836.78-1.611,1.627c-.108.119-.231.221-.337.34-.088.1-.161.214-.247.314q-.829.966-1.578,2c-.066.091-.144.173-.209.265-.014.02-.025.043-.04.064a29.868,29.868,0,0,0-1.627,2.64c-.053.1-.121.184-.174.281-.155.289-.29.589-.435.883-.12.243-.245.481-.359.727-.249.539-.477,1.089-.694,1.645-.061.158-.133.312-.192.471-.009.026-.021.05-.031.075-.149.407-.266.826-.4,1.24-.108.341-.232.675-.327,1.021-.128.464-.223.939-.328,1.41-.073.329-.164.653-.225.985-.1.526-.157,1.06-.224,1.593-.036.287-.091.569-.118.856q-.117,1.236-.121,2.488a22.721,22.721,0,0,0,4.382,13.855,19.415,19.415,0,0,0,2.78,2.977q.51.443,1.049.845a18.533,18.533,0,0,0,2.262,1.452l3.623,1.971c-6.31-3.433-10.489-10.457-10.473-19.129,0-.835.043-1.665.12-2.489C777.276,1226.812,777.329,1226.545,777.362,1226.275Z" fill="#9c1536"/>
    </g>
  </g>
</svg>
