<svg xmlns="http://www.w3.org/2000/svg" xmlns:xlink="http://www.w3.org/1999/xlink" width="76.076" height="82.754" viewBox="0 0 76.076 82.754">
  <defs>
    <clipPath id="clip-path">
      <path id="Path_7334" data-name="Path 7334" d="M38.072-119.774a22.871,22.871,0,0,0-15.328-5.85,22.814,22.814,0,0,0-14.17,4.9A22,22,0,0,0,5.09-89.42c4.8,5.541,13.1,9.293,24.555,5.132,5.788-2.1,8.864-2.821,15.523.816l1.08.557c.794.348,1.915.812,2.842,1.153,1.765.649,3.818,1.393,1.97,2.652-.865.588-2.515,1.624-6.823.126,2.52.944,3.145,1.107,3.145,1.107a16.9,16.9,0,0,0,6.6.341c4.085-.623,10.568-4.665,15.127-9.544.1-.114.208-.229.312-.344.183-.2.366-.4.541-.606a24,24,0,0,0,2.521-3.348A22,22,0,0,0,67.57-120.72a22.814,22.814,0,0,0-14.171-4.9A22.872,22.872,0,0,0,38.072-119.774Zm1.128,5.834a.95.95,0,0,1,.957-.941.949.949,0,0,1,.958.941.948.948,0,0,1-.958.94A.949.949,0,0,1,39.2-113.941Zm-.479,2.9a1.564,1.564,0,0,1,1.588-1.474,1.578,1.578,0,0,1,1.592,1.48l.8,5.019c.164-.294.342-1.051.686-1.073.238-.013.386.194.575.69.151.336.27.568.35.709l9.817.478v.007a.234.234,0,0,1,.031-.007.456.456,0,0,1,.459.452.455.455,0,0,1-.459.451.233.233,0,0,1-.031-.006v.005l-9.444.457a.466.466,0,0,1-.076.005c-1.044,0-1.11-1-1.283-1.187-.209,1.1-.5,1.355-.756,1.45a1.309,1.309,0,0,1-.422.069,1.055,1.055,0,0,1-1.057-.843l-.026-.152-.716-5.682L38.072-92.6a1.563,1.563,0,0,1-1.589,1.472,1.578,1.578,0,0,1-1.589-1.457l-.438-2.174a.923.923,0,0,1,.738-1.081.93.93,0,0,1,1.1.725l.163,2.048Zm-6.105,8.069c.163-.246.337-.547.44-.725.056-.1.095-.163.107-.181a.861.861,0,0,1,.831-.532c.331.036.505.54.54.727l.018.069.729,2.215a.923.923,0,0,1-.769,1.057.972.972,0,0,1-.155.013.926.926,0,0,1-.921-.769l-.053-.943s-.383.941-.962.947l-9.459-.471v-.01a.466.466,0,0,1-.419-.458.466.466,0,0,1,.419-.456v-.008l.053,0h.01ZM33.7-99.152a.948.948,0,0,1,.956-.941.95.95,0,0,1,.958.941.95.95,0,0,1-.958.94A.948.948,0,0,1,33.7-99.152Zm.289,2.08a.949.949,0,0,1,.958-.94.948.948,0,0,1,.956.94.948.948,0,0,1-.956.941A.949.949,0,0,1,33.991-97.072Z" transform="translate(-0.099 125.624)" fill="none"/>
    </clipPath>
    <linearGradient id="linear-gradient" y1="0.5" x2="0.583" y2="0.5" gradientUnits="objectBoundingBox">
      <stop offset="0" stop-color="#5dc7d9"/>
      <stop offset="0.1" stop-color="#58bbcd"/>
      <stop offset="0.2" stop-color="#52afc0"/>
      <stop offset="0.3" stop-color="#4da2b3"/>
      <stop offset="0.4" stop-color="#4796a6"/>
      <stop offset="0.5" stop-color="#428999"/>
      <stop offset="0.6" stop-color="#3c7d8d"/>
      <stop offset="0.7" stop-color="#377180"/>
      <stop offset="0.8" stop-color="#316473"/>
      <stop offset="0.9" stop-color="#2c5866"/>
      <stop offset="1" stop-color="#264b59"/>
    </linearGradient>
  </defs>
  <g id="Group_1004" data-name="Group 1004" transform="translate(0 125.624)">
    <path id="Path_7322" data-name="Path 7322" d="M4.662-11.971H0V-22.28c0-1.642,2.3-1.437,2.3-1.437v9.76H6.18s.308,1.984-1.517,1.984" transform="translate(0 -34.774)" fill="#42738d"/>
    <path id="Path_7323" data-name="Path 7323" d="M15.513-14.308c-2.284,0-2.9.557-2.9,1.306a1,1,0,0,0,1.062,1.009,1.99,1.99,0,0,0,1.841-2.088Zm.266,2.384s-1.523,1.636-2.833,1.636a2.35,2.35,0,0,1-2.515-2.471c0-2.053,2-3.01,5.082-3.01v-.314c0-1.044-.407-1.513-1.575-1.513a6.241,6.241,0,0,0-1.315.167,8.281,8.281,0,0,0-1.342.424,1.531,1.531,0,0,1,1.242-2.142,10.068,10.068,0,0,1,1.716-.154c2.728,0,3.542,1.114,3.542,3.045v3.568c0,.7.017,1.513.071,2.227,0,0-2.072.486-2.072-1.462" transform="translate(-3.559 -36.283)" fill="#42738d"/>
    <path id="Path_7324" data-name="Path 7324" d="M24.587-19.017h6.146l-4.576,6.63c.372-.018,2.048-.018,2.7-.018H30.4s.243,2.036-1.6,2.036H22.3l4.6-6.681H22.7c0-2.269,1.887-1.966,1.887-1.966" transform="translate(-7.612 -36.376)" fill="#42738d"/>
    <path id="Path_7325" data-name="Path 7325" d="M39.424-17.639a1.779,1.779,0,0,0-1.736,1.81h3.258c.036-1.183-.567-1.81-1.522-1.81m2.039,7.191a6.907,6.907,0,0,1-1.808.221c-2.78,0-4.287-1.427-4.287-4.471,0-2.592,1.558-4.576,4.179-4.576A3.339,3.339,0,0,1,43.2-15.6a7.843,7.843,0,0,1-.089,1.254H37.671c0,1.53.726,2.331,2.425,2.331a7,7,0,0,0,2.551-.505,1.612,1.612,0,0,1-1.184,2.076" transform="translate(-12.07 -36.293)" fill="#42738d"/>
    <path id="Path_7326" data-name="Path 7326" d="M51.132-19.1c-.013.251-.036.984,0,1.549l.017.017a3.159,3.159,0,0,1,2.9-1.739,2.257,2.257,0,0,1,2.425,1.722,3.142,3.142,0,0,1,2.869-1.722c1.7,0,2.639.922,2.639,2.871v4.627s.028,1.458-2.266,1.458v-5.6c0-.923-.214-1.5-1.045-1.5-.992,0-2.02,1.132-2.02,2.818v2.876s.242,1.4-2.231,1.4v-5.616c0-.852-.177-1.479-1.044-1.479-1.045,0-2.018,1.2-2.018,2.818v2.76s.259,1.516-2.267,1.516v-7.426c0-1.492,2.038-1.356,2.038-1.356" transform="translate(-16.754 -36.293)" fill="#42738d"/>
    <path id="Path_7327" data-name="Path 7327" d="M104.426-11.971h6.761V-22.28c0-1.642-2.3-1.437-2.3-1.437v9.76h-5.975s-.308,1.984,1.519,1.984" transform="translate(-35.111 -34.774)" fill="#42738d"/>
    <path id="Path_7328" data-name="Path 7328" d="M105.445-22.71l2.228,7.857h-2.327l-2.553-8.889s2.236-.362,2.652,1.032" transform="translate(-35.079 -34.754)" fill="#42738d"/>
    <path id="Path_7329" data-name="Path 7329" d="M93.842-6.611a1.588,1.588,0,0,1-1.866-1.725h1.394c1.173,0,1.863-.541,1.863-2.371V-19.32s2.275-.18,2.275,1.349v7.146c0,2.04-.681,3.888-3.665,4.214" transform="translate(-31.387 -36.275)" fill="#42738d"/>
    <path id="Path_7330" data-name="Path 7330" d="M96.919-23.311v2.251h2.275v-.9c0-1.53-2.275-1.349-2.275-1.349" transform="translate(-33.074 -34.913)" fill="#42738d"/>
    <path id="Path_7331" data-name="Path 7331" d="M84.389-15.062c0-1.694-.691-2.406-1.846-2.406a2.051,2.051,0,0,0-2.051,2.288c0,1.592.05,2.98,2.586,2.98h1.311ZM75.56-6.642l-.272-1.705L74.7-12.012c-.38-2.406.5-4.083,3.259-4.083h.414A4.076,4.076,0,0,1,82.7-19.229c2.708,0,3.9,1.524,3.9,3.9v4.9H82.819c-3.926,0-4.328-1.88-4.552-3.9h-.379c-1,0-1.277.559-1.017,2.15L77.4-8.931S78-6.923,75.56-6.642" transform="translate(-25.463 -36.308)" fill="#42738d"/>
    <path id="Path_7332" data-name="Path 7332" d="M48.884-61.158a9.3,9.3,0,0,0-3.755,1c-3.3,1.55-6.019,3.374-10.649,5.075-1.765.649-3.818,1.393-1.97,2.652.947.645,2.549,1.916,7.845-.286,4.786-1.991,8.378-3.053,12.669-.8,0,0,1.454.712,1.513,1.9.036.72-.582,1.37-3.359,1.432a6.532,6.532,0,0,0-3.02,1.225c-1.3,1.062-2.39,1.009-3.63,1.214-1.621.268-2.507.969-2.473,1.821.022.549.228,1.07,1.35,1.621a11.409,11.409,0,0,0,3.941.834,18.594,18.594,0,0,0,2.415-.146,26.535,26.535,0,0,0,16.221-7.961c3.571-3.819,14.9-17.149,14.9-17.149-4.567,5.345-11.7,9.942-16.083,10.61a16.9,16.9,0,0,1-6.6-.34s-.829-.214-4.445-1.6a15.741,15.741,0,0,0-4.866-1.094" transform="translate(-10.846 -19.414)" fill="#ed1748"/>
    <g id="Group_1003" data-name="Group 1003" transform="translate(0.065 -125.624)" clip-path="url(#clip-path)">
      <g id="Group_1002" data-name="Group 1002" transform="translate(76.01) rotate(90)">
        <path id="Path_7333" data-name="Path 7333" d="M0,76.075V0H82.754V76.075Z" fill="url(#linear-gradient)"/>
      </g>
    </g>
  </g>
</svg>
