<svg xmlns="http://www.w3.org/2000/svg" xmlns:xlink="http://www.w3.org/1999/xlink" width="60.457" height="65.764" viewBox="0 0 60.457 65.764">
  <defs>
    <clipPath id="clip-path">
      <path id="Path_7334" data-name="Path 7334" d="M30.276-120.975a18.175,18.175,0,0,0-12.181-4.649,18.131,18.131,0,0,0-11.261,3.9A17.485,17.485,0,0,0,4.065-96.853c3.813,4.4,10.409,7.385,19.514,4.079,4.6-1.669,7.044-2.242,12.336.648l.858.442c.631.276,1.522.645,2.258.916,1.4.516,3.034,1.107,1.565,2.108-.687.467-2,1.29-5.422.1,2,.75,2.5.879,2.5.879a13.431,13.431,0,0,0,5.247.271c3.246-.5,8.4-3.707,12.021-7.584l.248-.273c.146-.16.291-.32.43-.482a19.075,19.075,0,0,0,2-2.66,17.485,17.485,0,0,0-3.906-23.317,18.13,18.13,0,0,0-11.261-3.9A18.176,18.176,0,0,0,30.276-120.975Zm.9,4.636a.755.755,0,0,1,.761-.748.754.754,0,0,1,.761.748.754.754,0,0,1-.761.747A.754.754,0,0,1,31.172-116.339Zm-.381,2.3a1.243,1.243,0,0,1,1.262-1.171,1.254,1.254,0,0,1,1.265,1.176l.637,3.989c.13-.234.272-.835.545-.853.19-.01.307.154.457.549.12.267.215.451.278.563l7.8.38v.006a.187.187,0,0,1,.025-.005.362.362,0,0,1,.365.359.361.361,0,0,1-.365.358.186.186,0,0,1-.025,0v0l-7.5.363a.369.369,0,0,1-.061,0c-.83,0-.882-.792-1.019-.943-.166.875-.395,1.077-.6,1.152a1.04,1.04,0,0,1-.336.055.839.839,0,0,1-.84-.67l-.021-.12-.569-4.516-1.811,13.98a1.242,1.242,0,0,1-1.263,1.17,1.254,1.254,0,0,1-1.263-1.158l-.348-1.728a.734.734,0,0,1,.586-.859.739.739,0,0,1,.873.576l.129,1.628Zm-4.852,6.413c.129-.2.268-.435.35-.576.044-.077.075-.13.085-.144a.684.684,0,0,1,.66-.422c.263.029.4.429.429.578l.015.055.579,1.761a.733.733,0,0,1-.611.84.773.773,0,0,1-.124.01.736.736,0,0,1-.732-.611l-.042-.749s-.3.748-.765.752l-7.517-.374v-.008a.371.371,0,0,1-.333-.364.371.371,0,0,1,.333-.363v-.006l.042,0h.008Zm.864,3.035a.754.754,0,0,1,.76-.748.755.755,0,0,1,.762.748.755.755,0,0,1-.762.747A.754.754,0,0,1,26.8-104.587Zm.229,1.653a.754.754,0,0,1,.761-.747.753.753,0,0,1,.76.747.754.754,0,0,1-.76.748A.754.754,0,0,1,27.033-102.934Z" transform="translate(-0.099 125.624)" fill="#fff"/>
    </clipPath>
  </defs>
  <g id="Group_11855" data-name="Group 11855" transform="translate(0 125.624)">
    <path id="Path_7322" data-name="Path 7322" d="M3.705-14.384H0v-8.192c0-1.3,1.83-1.142,1.83-1.142v7.757H4.911s.245,1.577-1.206,1.577" transform="translate(0 -48.555)" fill="#fff"/>
    <path id="Path_7323" data-name="Path 7323" d="M14.469-15.333c-1.815,0-2.307.443-2.307,1.038a.792.792,0,0,0,.844.8,1.582,1.582,0,0,0,1.463-1.66Zm.211,1.895s-1.21,1.3-2.251,1.3a1.868,1.868,0,0,1-2-1.963c0-1.632,1.59-2.392,4.039-2.392v-.25c0-.83-.324-1.2-1.252-1.2a4.96,4.96,0,0,0-1.045.132,6.581,6.581,0,0,0-1.067.337,1.216,1.216,0,0,1,.987-1.7,8,8,0,0,1,1.363-.123c2.168,0,2.815.885,2.815,2.42v2.835c0,.553.014,1.2.056,1.77,0,0-1.646.386-1.646-1.162" transform="translate(-4.97 -50.663)" fill="#fff"/>
    <path id="Path_7324" data-name="Path 7324" d="M24.118-19.02H29l-3.636,5.269c.3-.014,1.628-.014,2.148-.014h1.224s.193,1.618-1.271,1.618H22.3l3.652-5.31H22.618c0-1.8,1.5-1.563,1.5-1.563" transform="translate(-10.628 -50.792)" fill="#fff"/>
    <path id="Path_7325" data-name="Path 7325" d="M38.591-17.975a1.414,1.414,0,0,0-1.379,1.438H39.8c.028-.94-.451-1.438-1.21-1.438m1.62,5.714a5.489,5.489,0,0,1-1.436.175c-2.209,0-3.407-1.134-3.407-3.553,0-2.06,1.238-3.637,3.321-3.637a2.654,2.654,0,0,1,2.9,2.917,6.233,6.233,0,0,1-.071,1H37.2c0,1.216.577,1.852,1.927,1.852a5.563,5.563,0,0,0,2.027-.4,1.281,1.281,0,0,1-.941,1.65" transform="translate(-16.853 -50.676)" fill="#fff"/>
    <path id="Path_7326" data-name="Path 7326" d="M50.713-19.136c-.01.2-.028.782,0,1.231l.014.014a2.51,2.51,0,0,1,2.308-1.382,1.794,1.794,0,0,1,1.927,1.369,2.5,2.5,0,0,1,2.28-1.369c1.351,0,2.1.732,2.1,2.281v3.677s.022,1.159-1.8,1.159v-4.448c0-.734-.17-1.19-.831-1.19-.788,0-1.605.9-1.605,2.24v2.285s.192,1.113-1.773,1.113V-16.62c0-.677-.14-1.175-.83-1.175-.831,0-1.6.955-1.6,2.24v2.193s.206,1.205-1.8,1.205v-5.9c0-1.186,1.62-1.078,1.62-1.078" transform="translate(-23.393 -50.676)" fill="#fff"/>
    <path id="Path_7327" data-name="Path 7327" d="M104.11-14.384h5.373v-8.192c0-1.3-1.831-1.142-1.831-1.142v7.757H102.9s-.244,1.577,1.207,1.577" transform="translate(-49.026 -48.555)" fill="#fff"/>
    <path id="Path_7328" data-name="Path 7328" d="M104.9-22.93l1.77,6.244h-1.85l-2.029-7.064s1.777-.288,2.108.82" transform="translate(-48.981 -48.527)" fill="#fff"/>
    <path id="Path_7329" data-name="Path 7329" d="M93.458-9.221a1.262,1.262,0,0,1-1.483-1.371h1.107c.932,0,1.48-.43,1.48-1.884v-6.845s1.808-.143,1.808,1.072v5.679c0,1.621-.541,3.09-2.913,3.349" transform="translate(-43.826 -50.651)" fill="#fff"/>
    <path id="Path_7330" data-name="Path 7330" d="M96.919-23.312v1.789h1.808v-.716c0-1.216-1.808-1.072-1.808-1.072" transform="translate(-46.182 -48.749)" fill="#fff"/>
    <path id="Path_7331" data-name="Path 7331" d="M82.382-15.917c0-1.346-.549-1.912-1.467-1.912a1.63,1.63,0,0,0-1.63,1.818c0,1.265.04,2.368,2.055,2.368h1.042ZM75.366-9.226l-.216-1.355-.468-2.912c-.3-1.912.4-3.245,2.59-3.245H77.6a3.239,3.239,0,0,1,3.439-2.49,2.774,2.774,0,0,1,3.1,3.1v3.891h-3c-3.12,0-3.44-1.494-3.617-3.1h-.3c-.795,0-1.014.444-.808,1.709l.424,2.584s.472,1.6-1.466,1.819" transform="translate(-35.554 -50.697)" fill="#fff"/>
    <path id="Path_7332" data-name="Path 7332" d="M45.373-62.713a7.387,7.387,0,0,0-2.984.793,83.722,83.722,0,0,1-8.463,4.033c-1.4.516-3.034,1.107-1.565,2.108.753.512,2.026,1.523,6.234-.227,3.8-1.582,6.658-2.426,10.068-.636,0,0,1.156.566,1.2,1.507.028.572-.462,1.089-2.669,1.138a5.191,5.191,0,0,0-2.4.973,5,5,0,0,1-2.884.965c-1.288.213-1.992.77-1.965,1.447.017.436.181.851,1.073,1.288a9.067,9.067,0,0,0,3.132.663,14.776,14.776,0,0,0,1.919-.116,21.087,21.087,0,0,0,12.891-6.327C61.8-58.14,70.8-68.733,70.8-68.733c-3.629,4.247-9.3,7.9-12.781,8.432a13.434,13.434,0,0,1-5.247-.27s-.659-.17-3.532-1.271a12.51,12.51,0,0,0-3.867-.87" transform="translate(-15.145 -27.108)" fill="#fff"/>
    <g id="Group_1003" data-name="Group 1003" transform="translate(0.052 -125.624)" clip-path="url(#clip-path)">
      <g id="Group_1002" data-name="Group 1002" transform="translate(60.405) rotate(90)">
        <path id="Path_7333" data-name="Path 7333" d="M0,60.457V0H65.764V60.457Z" fill="#fff"/>
      </g>
    </g>
  </g>
</svg>
