<svg xmlns="http://www.w3.org/2000/svg" xmlns:xlink="http://www.w3.org/1999/xlink" width="79.219" height="98.36" viewBox="0 0 79.219 98.36">
  <defs>
    <linearGradient id="linear-gradient" x1="0.5" y1="1" x2="0.5" gradientUnits="objectBoundingBox">
      <stop offset="0" stop-color="#fff" stop-opacity="0"/>
      <stop offset="0.155" stop-color="#fdfefe" stop-opacity="0.016"/>
      <stop offset="0.288" stop-color="#f9fdfd" stop-opacity="0.059"/>
      <stop offset="0.415" stop-color="#f2fafb" stop-opacity="0.137"/>
      <stop offset="0.536" stop-color="#e8f7f9" stop-opacity="0.243"/>
      <stop offset="0.655" stop-color="#dcf2f6" stop-opacity="0.384"/>
      <stop offset="0.77" stop-color="#ccedf2" stop-opacity="0.553"/>
      <stop offset="0.884" stop-color="#bae6ee" stop-opacity="0.757"/>
      <stop offset="0.994" stop-color="#a5dfe9" stop-opacity="0.984"/>
      <stop offset="1" stop-color="#a4dfe9"/>
    </linearGradient>
    <linearGradient id="linear-gradient-2" x1="0.5" y1="1" x2="0.5" gradientUnits="objectBoundingBox">
      <stop offset="0" stop-color="#fff" stop-opacity="0"/>
      <stop offset="0.114" stop-color="#fdfefe" stop-opacity="0.02"/>
      <stop offset="0.244" stop-color="#f7fcfd" stop-opacity="0.078"/>
      <stop offset="0.382" stop-color="#eef9fb" stop-opacity="0.176"/>
      <stop offset="0.526" stop-color="#e2f4f8" stop-opacity="0.314"/>
      <stop offset="0.674" stop-color="#d2eff4" stop-opacity="0.49"/>
      <stop offset="0.825" stop-color="#bee8ef" stop-opacity="0.71"/>
      <stop offset="0.977" stop-color="#a7e0e9" stop-opacity="0.961"/>
      <stop offset="1" stop-color="#a4dfe9"/>
    </linearGradient>
    <linearGradient id="linear-gradient-3" y1="-4.168" x2="1" y2="-4.168" gradientUnits="objectBoundingBox">
      <stop offset="0"/>
      <stop offset="1" stop-opacity="0"/>
    </linearGradient>
    <linearGradient id="linear-gradient-4" x1="0" y1="-4.211" x2="1" y2="-4.211" xlink:href="#linear-gradient-3"/>
    <clipPath id="clip-path">
      <path id="Path_36621" data-name="Path 36621" d="M541.688,1272.907a5.725,5.725,0,0,0-4.99,5.87c0,3.063,2.234,5.373,4.99,5.158a5.775,5.775,0,0,0,4.99-5.87A4.863,4.863,0,0,0,541.688,1272.907Z" fill="none"/>
    </clipPath>
  </defs>
  <g id="Group_11803" data-name="Group 11803" transform="translate(-509.7 -1252.939)">
    <ellipse id="Ellipse_119" data-name="Ellipse 119" cx="34.982" cy="34.391" rx="34.982" ry="34.391" transform="translate(509.7 1252.939)" fill="url(#linear-gradient)"/>
    <path id="Path_36554" data-name="Path 36554" d="M534.2,1333.841l39.111,17.458,15.6-10.253-16.037-19.68Z" fill="url(#linear-gradient-2)"/>
    <g id="Group_11802" data-name="Group 11802">
      <path id="Path_36555" data-name="Path 36555" d="M534.2,1327.544a1.844,1.844,0,0,1-.5-1.094V1270.6a.616.616,0,0,1,.532-.626l36.858-2.865a1.549,1.549,0,0,1,1.031.468,1.844,1.844,0,0,1,.5,1.094l-37.39,59.336A1.547,1.547,0,0,1,534.2,1327.544Z" opacity="0.1" fill="url(#linear-gradient-3)" style="mix-blend-mode: multiply;isolation: isolate"/>
      <path id="Path_36556" data-name="Path 36556" d="M549.672,1269.876l-1-1.019-14.437,1.122a.553.553,0,0,0-.376.2h0a.659.659,0,0,0-.155.425v55.845a1.844,1.844,0,0,0,.5,1.094,1.552,1.552,0,0,0,1.031.468l4.457-.347v-51.532l-4.054-4.139Z" opacity="0.1" fill="url(#linear-gradient-4)" style="mix-blend-mode: multiply;isolation: isolate"/>
      <g id="Group_11751" data-name="Group 11751">
        <path id="Path_36557" data-name="Path 36557" d="M535.235,1328.012l36.858-2.865a.616.616,0,0,0,.532-.626v-55.845a.51.51,0,0,0-.532-.543L535.234,1271a.616.616,0,0,0-.532.626v55.845A.511.511,0,0,0,535.235,1328.012Z" fill="#375a64"/>
        <path id="Path_36558" data-name="Path 36558" d="M535.235,1328.012l36.858-2.865a.616.616,0,0,0,.532-.626v-55.845a.51.51,0,0,0-.532-.543L535.234,1271a.616.616,0,0,0-.532.626v55.845A.511.511,0,0,0,535.235,1328.012Z" fill="#5cbed0"/>
      </g>
      <path id="Path_36559" data-name="Path 36559" d="M537.762,1285.966l8.85-.688a.985.985,0,0,1,1.064,1.014,1.188,1.188,0,0,1-1.064,1.179l-8.85.687a.985.985,0,0,1-1.064-1.013A1.188,1.188,0,0,1,537.762,1285.966Z" fill="#00dfbf"/>
      <path id="Path_36560" data-name="Path 36560" d="M537.762,1289.416l5.856-.456a.986.986,0,0,1,1.064,1.014,1.187,1.187,0,0,1-1.064,1.179l-5.856.455a.985.985,0,0,1-1.064-1.013A1.188,1.188,0,0,1,537.762,1289.416Z" fill="#00dfbf"/>
      <path id="Path_36561" data-name="Path 36561" d="M537.124,1295.021l1.145-.089a.407.407,0,0,1,.425.434v1.258a.492.492,0,0,1-.425.5l-1.145.089a.408.408,0,0,1-.426-.434v-1.258A.492.492,0,0,1,537.124,1295.021Z" fill="#00dfbf"/>
      <path id="Path_36562" data-name="Path 36562" d="M537.124,1295.021l1.145-.089a.407.407,0,0,1,.425.434v1.258a.492.492,0,0,1-.425.5l-1.145.089a.408.408,0,0,1-.426-.434v-1.258A.492.492,0,0,1,537.124,1295.021Z" opacity="0.2"/>
      <g id="Group_11754" data-name="Group 11754">
        <g id="Group_11752" data-name="Group 11752">
          <path id="Path_36563" data-name="Path 36563" d="M537.124,1299.406l1.145-.089a.409.409,0,0,1,.425.435v1.258a.492.492,0,0,1-.425.5l-1.145.089a.408.408,0,0,1-.426-.434v-1.258A.494.494,0,0,1,537.124,1299.406Z" fill="#00dfbf"/>
        </g>
        <g id="Group_11753" data-name="Group 11753" opacity="0.2">
          <path id="Path_36564" data-name="Path 36564" d="M537.124,1299.406l1.145-.089a.409.409,0,0,1,.425.435v1.258a.492.492,0,0,1-.425.5l-1.145.089a.408.408,0,0,1-.426-.434v-1.258A.494.494,0,0,1,537.124,1299.406Z"/>
        </g>
      </g>
      <g id="Group_11755" data-name="Group 11755">
        <path id="Path_36565" data-name="Path 36565" d="M540.224,1299.714l6.92-.538a.492.492,0,0,1,.532.507.594.594,0,0,1-.532.589l-6.92.538a.493.493,0,0,1-.532-.507A.594.594,0,0,1,540.224,1299.714Z" fill="#00dfbf"/>
        <path id="Path_36566" data-name="Path 36566" d="M540.224,1299.714l6.92-.538a.492.492,0,0,1,.532.507.594.594,0,0,1-.532.589l-6.92.538a.493.493,0,0,1-.532-.507A.594.594,0,0,1,540.224,1299.714Z" opacity="0.2"/>
      </g>
      <g id="Group_11756" data-name="Group 11756">
        <path id="Path_36567" data-name="Path 36567" d="M540.224,1295.328l6.92-.538a.492.492,0,0,1,.532.507.593.593,0,0,1-.532.589l-6.92.538a.493.493,0,0,1-.532-.507A.6.6,0,0,1,540.224,1295.328Z" fill="#00dfbf"/>
        <path id="Path_36568" data-name="Path 36568" d="M540.224,1295.328l6.92-.538a.492.492,0,0,1,.532.507.593.593,0,0,1-.532.589l-6.92.538a.493.493,0,0,1-.532-.507A.6.6,0,0,1,540.224,1295.328Z" opacity="0.2"/>
      </g>
      <g id="Group_11757" data-name="Group 11757">
        <path id="Path_36569" data-name="Path 36569" d="M572.093,1268.133l-22.421,1.743v57.014l22.421-1.743a.616.616,0,0,0,.532-.626v-55.845A.51.51,0,0,0,572.093,1268.133Z" fill="#ececec"/>
        <path id="Path_36570" data-name="Path 36570" d="M572.093,1268.133l-22.421,1.743v57.014l22.421-1.743a.616.616,0,0,0,.532-.626v-55.845A.51.51,0,0,0,572.093,1268.133Z" fill="#fff"/>
      </g>
      <path id="Path_36571" data-name="Path 36571" d="M549.672,1272.069v4.386l-2,1.251,2,.941v4.386l20.957-1.629V1270.44Z" fill="#43758e"/>
      <g id="Group_11758" data-name="Group 11758" opacity="0.6">
        <path id="Path_36572" data-name="Path 36572" d="M552.413,1273.514l8.49-.66a.714.714,0,0,1,.744.76v.008a.862.862,0,0,1-.744.876l-8.49.66a.714.714,0,0,1-.745-.76v-.008A.861.861,0,0,1,552.413,1273.514Z" fill="#fff"/>
      </g>
      <path id="Path_36573" data-name="Path 36573" d="M551.934,1276.827l16.433-1.277a.246.246,0,0,1,.266.253.3.3,0,0,1-.266.3l-16.433,1.277a.246.246,0,0,1-.266-.253A.3.3,0,0,1,551.934,1276.827Z" fill="#00dfbf"/>
      <g id="Group_11759" data-name="Group 11759">
        <path id="Path_36574" data-name="Path 36574" d="M551.934,1276.827l16.433-1.277a.246.246,0,0,1,.266.253.3.3,0,0,1-.266.3l-16.433,1.277a.246.246,0,0,1-.266-.253A.3.3,0,0,1,551.934,1276.827Z" fill="#00dfbf"/>
        <path id="Path_36575" data-name="Path 36575" d="M551.934,1276.827l16.433-1.277a.246.246,0,0,1,.266.253.3.3,0,0,1-.266.3l-16.433,1.277a.246.246,0,0,1-.266-.253A.3.3,0,0,1,551.934,1276.827Z" fill="#fff" opacity="0.6"/>
      </g>
      <g id="Group_11761" data-name="Group 11761">
        <g id="Group_11760" data-name="Group 11760">
          <path id="Path_36576" data-name="Path 36576" d="M551.934,1278.471l16.433-1.277a.247.247,0,0,1,.266.254.3.3,0,0,1-.266.294l-16.433,1.278a.247.247,0,0,1-.266-.254A.3.3,0,0,1,551.934,1278.471Z" fill="#00dfbf"/>
          <path id="Path_36577" data-name="Path 36577" d="M551.934,1278.471l16.433-1.277a.247.247,0,0,1,.266.254.3.3,0,0,1-.266.294l-16.433,1.278a.247.247,0,0,1-.266-.254A.3.3,0,0,1,551.934,1278.471Z" fill="#fff" opacity="0.6"/>
        </g>
      </g>
      <g id="Group_11762" data-name="Group 11762">
        <path id="Path_36578" data-name="Path 36578" d="M552.553,1285.007l1.145-.089a.408.408,0,0,1,.425.434v1.258a.491.491,0,0,1-.425.5l-1.145.089a.408.408,0,0,1-.426-.434v-1.258A.492.492,0,0,1,552.553,1285.007Z" fill="#00dfbf"/>
        <path id="Path_36579" data-name="Path 36579" d="M552.553,1285.007l1.145-.089a.408.408,0,0,1,.425.434v1.258a.491.491,0,0,1-.425.5l-1.145.089a.408.408,0,0,1-.426-.434v-1.258A.492.492,0,0,1,552.553,1285.007Z" fill="#fff" opacity="0.2"/>
      </g>
      <g id="Group_11763" data-name="Group 11763">
        <path id="Path_36580" data-name="Path 36580" d="M555.653,1285.314l6.92-.538a.492.492,0,0,1,.532.507.593.593,0,0,1-.532.589l-6.92.538a.493.493,0,0,1-.532-.507A.594.594,0,0,1,555.653,1285.314Z" fill="#00dfbf"/>
        <path id="Path_36581" data-name="Path 36581" d="M555.653,1285.314l6.92-.538a.492.492,0,0,1,.532.507.593.593,0,0,1-.532.589l-6.92.538a.493.493,0,0,1-.532-.507A.594.594,0,0,1,555.653,1285.314Z" fill="#fff" opacity="0.8"/>
      </g>
      <path id="Path_36582" data-name="Path 36582" d="M552.393,1288.859l17.432-1.357a.247.247,0,0,1,.266.254.3.3,0,0,1-.266.294l-17.432,1.357a.247.247,0,0,1-.266-.254A.3.3,0,0,1,552.393,1288.859Z" fill="#00dfbf"/>
      <path id="Path_36583" data-name="Path 36583" d="M552.393,1290.5l17.432-1.356a.246.246,0,0,1,.266.253.3.3,0,0,1-.266.295l-17.432,1.356a.246.246,0,0,1-.266-.253A.3.3,0,0,1,552.393,1290.5Z" fill="#00dfbf"/>
      <g id="Group_11764" data-name="Group 11764">
        <path id="Path_36584" data-name="Path 36584" d="M552.393,1300.78l17.432-1.356a.246.246,0,0,1,.266.253.3.3,0,0,1-.266.3l-17.432,1.356a.246.246,0,0,1-.266-.253A.3.3,0,0,1,552.393,1300.78Z" fill="#e1e1e1"/>
        <path id="Path_36585" data-name="Path 36585" d="M552.393,1302.425l17.432-1.357a.247.247,0,0,1,.266.254.3.3,0,0,1-.266.294l-17.432,1.357a.246.246,0,0,1-.266-.253A.3.3,0,0,1,552.393,1302.425Z" fill="#e1e1e1"/>
        <path id="Path_36586" data-name="Path 36586" d="M552.393,1300.78l17.432-1.356a.246.246,0,0,1,.266.253.3.3,0,0,1-.266.3l-17.432,1.356a.246.246,0,0,1-.266-.253A.3.3,0,0,1,552.393,1300.78Z" fill="#f0f0f0"/>
        <path id="Path_36587" data-name="Path 36587" d="M552.393,1302.425l17.432-1.357a.247.247,0,0,1,.266.254.3.3,0,0,1-.266.294l-17.432,1.357a.246.246,0,0,1-.266-.253A.3.3,0,0,1,552.393,1302.425Z" fill="#f0f0f0"/>
      </g>
      <g id="Group_11765" data-name="Group 11765">
        <path id="Path_36588" data-name="Path 36588" d="M552.553,1297.067l1.145-.089a.409.409,0,0,1,.425.435v1.258a.492.492,0,0,1-.425.5l-1.145.089a.409.409,0,0,1-.426-.434v-1.258A.494.494,0,0,1,552.553,1297.067Z" fill="#00dfbf"/>
        <path id="Path_36589" data-name="Path 36589" d="M552.553,1297.067l1.145-.089a.409.409,0,0,1,.425.435v1.258a.492.492,0,0,1-.425.5l-1.145.089a.409.409,0,0,1-.426-.434v-1.258A.494.494,0,0,1,552.553,1297.067Z" fill="#fff" opacity="0.2"/>
      </g>
      <g id="Group_11766" data-name="Group 11766">
        <path id="Path_36590" data-name="Path 36590" d="M555.653,1297.375l6.92-.538a.492.492,0,0,1,.532.507.594.594,0,0,1-.532.589l-6.92.538a.492.492,0,0,1-.532-.507A.593.593,0,0,1,555.653,1297.375Z" fill="#00dfbf"/>
        <path id="Path_36591" data-name="Path 36591" d="M555.653,1297.375l6.92-.538a.492.492,0,0,1,.532.507.594.594,0,0,1-.532.589l-6.92.538a.492.492,0,0,1-.532-.507A.593.593,0,0,1,555.653,1297.375Z" fill="#fff" opacity="0.8"/>
      </g>
      <g id="Group_11767" data-name="Group 11767">
        <path id="Path_36592" data-name="Path 36592" d="M552.553,1309.128l1.145-.089a.408.408,0,0,1,.425.435v1.257a.492.492,0,0,1-.425.5l-1.145.089a.409.409,0,0,1-.426-.435v-1.257A.492.492,0,0,1,552.553,1309.128Z" fill="#00dfbf"/>
        <path id="Path_36593" data-name="Path 36593" d="M552.553,1309.128l1.145-.089a.408.408,0,0,1,.425.435v1.257a.492.492,0,0,1-.425.5l-1.145.089a.409.409,0,0,1-.426-.435v-1.257A.492.492,0,0,1,552.553,1309.128Z" fill="#fff" opacity="0.2"/>
      </g>
      <g id="Group_11768" data-name="Group 11768">
        <path id="Path_36594" data-name="Path 36594" d="M555.653,1309.435l6.92-.538a.494.494,0,0,1,.532.507.594.594,0,0,1-.532.59l-6.92.538a.492.492,0,0,1-.532-.507A.594.594,0,0,1,555.653,1309.435Z" fill="#00dfbf"/>
        <path id="Path_36595" data-name="Path 36595" d="M555.653,1309.435l6.92-.538a.494.494,0,0,1,.532.507.594.594,0,0,1-.532.59l-6.92.538a.492.492,0,0,1-.532-.507A.594.594,0,0,1,555.653,1309.435Z" fill="#fff" opacity="0.8"/>
      </g>
      <g id="Group_11801" data-name="Group 11801">
        <g id="Group_11800" data-name="Group 11800" clip-path="url(#clip-path)">
          <path id="Path_36596" data-name="Path 36596" d="M541.688,1272.907a5.725,5.725,0,0,0-4.99,5.87c0,3.063,2.234,5.373,4.99,5.158a5.775,5.775,0,0,0,4.99-5.87A4.863,4.863,0,0,0,541.688,1272.907Z" fill="#fff"/>
          <path id="Path_36597" data-name="Path 36597" d="M541.688,1272.907a5.725,5.725,0,0,0-4.99,5.87c0,3.063,2.234,5.373,4.99,5.158a5.775,5.775,0,0,0,4.99-5.87A4.863,4.863,0,0,0,541.688,1272.907Z" fill="none"/>
          <path id="Path_36598" data-name="Path 36598" d="M541.688,1272.907a5.725,5.725,0,0,0-4.99,5.87c0,3.063,2.234,5.373,4.99,5.158a5.775,5.775,0,0,0,4.99-5.87A4.863,4.863,0,0,0,541.688,1272.907Z" fill="none"/>
          <g id="Group_11770" data-name="Group 11770">
            <g id="Group_11769" data-name="Group 11769">
              <path id="Path_36599" data-name="Path 36599" d="M544.106,1283.486l-3.994-.865a.751.751,0,0,1-.568-.7v-6.47a1.486,1.486,0,0,1,1.883-1.512l1.364.3a2.49,2.49,0,0,1,1.883,2.327v6.471A.448.448,0,0,1,544.106,1283.486Z" fill="#231f20"/>
            </g>
          </g>
          <g id="Group_11773" data-name="Group 11773">
            <g id="Group_11771" data-name="Group 11771">
              <path id="Path_36600" data-name="Path 36600" d="M544.3,1285.25l-.429-1.967s.005-2.38-.358-2.771-.458-.477-.458-.477a2.129,2.129,0,0,1,1.725,1.388c.288.925.718,3.075.922,4.131Z" fill="#ff9090"/>
            </g>
            <g id="Group_11772" data-name="Group 11772">
              <path id="Path_36601" data-name="Path 36601" d="M544.264,1285.243l-1.424-5.288a2.1,2.1,0,0,1,1.834,1.057,33.1,33.1,0,0,1,1.03,4.543Z" fill="#ef1d4a"/>
            </g>
          </g>
          <g id="Group_11774" data-name="Group 11774">
            <path id="Path_36602" data-name="Path 36602" d="M544.455,1285.284l-1.4-.3a1.766,1.766,0,0,1,.392-.9,1.44,1.44,0,0,1,1.148-.281A6.535,6.535,0,0,0,544.455,1285.284Z" fill="#00dfbf"/>
          </g>
          <g id="Group_11777" data-name="Group 11777">
            <g id="Group_11775" data-name="Group 11775">
              <path id="Path_36603" data-name="Path 36603" d="M544.455,1285.284l-1.4-.3a1.766,1.766,0,0,1,.392-.9,1.44,1.44,0,0,1,1.148-.281A6.535,6.535,0,0,0,544.455,1285.284Z" fill="#00dfbf"/>
            </g>
            <g id="Group_11776" data-name="Group 11776" opacity="0.7">
              <path id="Path_36604" data-name="Path 36604" d="M544.455,1285.284l-1.4-.3a1.766,1.766,0,0,1,.392-.9,1.44,1.44,0,0,1,1.148-.281A6.535,6.535,0,0,0,544.455,1285.284Z"/>
            </g>
          </g>
          <g id="Group_11779" data-name="Group 11779">
            <g id="Group_11778" data-name="Group 11778">
              <path id="Path_36605" data-name="Path 36605" d="M544.155,1285.219l-3.919-.849-.435-1.48s1.148-2.014-.269-3.338c.18-.043,1.691.107,1.691.107l1.623.3a4.281,4.281,0,0,1,1.877,2.505c.113.469.074.82-.561,2.675A.6.6,0,0,0,544.155,1285.219Z" fill="#ef1d4a"/>
            </g>
          </g>
          <g id="Group_11781" data-name="Group 11781">
            <g id="Group_11780" data-name="Group 11780">
              <path id="Path_36606" data-name="Path 36606" d="M543.831,1275.515a3.35,3.35,0,0,1,.573,2.439c-.028,1.228-.42,1.448-.617,1.494a2.215,2.215,0,0,1-.947-.234v.741s.511.716.479,1.048-.738.261-1.216-.175a5.369,5.369,0,0,1-.88-1.169l.008-1.7s-.217.168-.586-.241c-.3-.337-.407-.817-.169-1.011s.675-.032.843.354a1.213,1.213,0,0,1,1.057-.636C543.145,1276.333,543.563,1276.129,543.831,1275.515Z" fill="#ffaaa8"/>
            </g>
          </g>
          <g id="Group_11783" data-name="Group 11783">
            <g id="Group_11782" data-name="Group 11782">
              <path id="Path_36607" data-name="Path 36607" d="M543.052,1277.351a.122.122,0,0,1-.144.137.206.206,0,0,1-.16-.188.123.123,0,0,1,.144-.138A.207.207,0,0,1,543.052,1277.351Z" fill="#2b454e"/>
            </g>
          </g>
          <g id="Group_11785" data-name="Group 11785">
            <g id="Group_11784" data-name="Group 11784">
              <path id="Path_36608" data-name="Path 36608" d="M543.093,1278.406l.354.192a.151.151,0,0,1-.23.079A.246.246,0,0,1,543.093,1278.406Z" fill="#ff9090"/>
            </g>
          </g>
          <g id="Group_11787" data-name="Group 11787">
            <g id="Group_11786" data-name="Group 11786">
              <path id="Path_36609" data-name="Path 36609" d="M544.3,1277.145l-.308-.285a.168.168,0,0,1,.255,0A.225.225,0,0,1,544.3,1277.145Z" fill="#2b454e"/>
            </g>
          </g>
          <g id="Group_11789" data-name="Group 11789">
            <g id="Group_11788" data-name="Group 11788">
              <path id="Path_36610" data-name="Path 36610" d="M542.609,1276.893l.308-.151a.2.2,0,0,0-.255-.109A.183.183,0,0,0,542.609,1276.893Z" fill="#2b454e"/>
            </g>
          </g>
          <g id="Group_11791" data-name="Group 11791">
            <g id="Group_11790" data-name="Group 11790">
              <path id="Path_36611" data-name="Path 36611" d="M544.23,1277.494a.122.122,0,0,1-.144.137.206.206,0,0,1-.16-.189.122.122,0,0,1,.144-.137A.207.207,0,0,1,544.23,1277.494Z" fill="#2b454e"/>
            </g>
          </g>
          <g id="Group_11793" data-name="Group 11793">
            <g id="Group_11792" data-name="Group 11792">
              <path id="Path_36612" data-name="Path 36612" d="M543.511,1277.249l.024.94.482-.048Z" fill="#ff9090"/>
            </g>
          </g>
          <g id="Group_11795" data-name="Group 11795">
            <g id="Group_11794" data-name="Group 11794">
              <path id="Path_36613" data-name="Path 36613" d="M542.84,1279.214c-.389-.136-1.19-.544-1.315-.894a1.093,1.093,0,0,0,.281.473,5.466,5.466,0,0,0,1.034.668Z" fill="#ff9090"/>
            </g>
          </g>
          <g id="Group_11797" data-name="Group 11797">
            <g id="Group_11796" data-name="Group 11796">
              <path id="Path_36614" data-name="Path 36614" d="M540.248,1284.373l-.166-.635.433.693Z" fill="#00dfbf"/>
            </g>
          </g>
          <g id="Group_11798" data-name="Group 11798">
            <path id="Path_36615" data-name="Path 36615" d="M539.925,1284.3a22.613,22.613,0,0,0-.719-2.691c-.413-1.272.048-1.985.326-2.06a10.236,10.236,0,0,1,1.691.107,18.168,18.168,0,0,1,.663,5.069Z" fill="#00dfbf"/>
            <path id="Path_36616" data-name="Path 36616" d="M539.925,1284.3a22.613,22.613,0,0,0-.719-2.691c-.413-1.272.048-1.985.326-2.06a10.236,10.236,0,0,1,1.691.107,18.168,18.168,0,0,1,.663,5.069Z" fill="#ef1d4a"/>
          </g>
          <g id="Group_11799" data-name="Group 11799">
            <path id="Path_36617" data-name="Path 36617" d="M539.228,1284.152l-1.4-.3c-.071-.082-.11-.138-.11-.138s.664-2.122.875-2.832.373-1.188.943-1.326a2.932,2.932,0,0,1,.55,2.654Z" fill="#00dfbf"/>
            <path id="Path_36618" data-name="Path 36618" d="M539.228,1284.152l-1.4-.3c-.071-.082-.11-.138-.11-.138s.664-2.122.875-2.832.373-1.188.943-1.326a2.932,2.932,0,0,1,.55,2.654Z" fill="#ef1d4a"/>
          </g>
          <path id="Path_36619" data-name="Path 36619" d="M541.688,1272.907a5.725,5.725,0,0,0-4.99,5.87c0,3.063,2.234,5.373,4.99,5.158a5.775,5.775,0,0,0,4.99-5.87A4.863,4.863,0,0,0,541.688,1272.907Z" fill="none"/>
          <path id="Path_36620" data-name="Path 36620" d="M541.688,1272.907a5.725,5.725,0,0,0-4.99,5.87c0,3.063,2.234,5.373,4.99,5.158a5.775,5.775,0,0,0,4.99-5.87A4.863,4.863,0,0,0,541.688,1272.907Z" fill="none"/>
        </g>
      </g>
    </g>
  </g>
</svg>
