<svg xmlns="http://www.w3.org/2000/svg" xmlns:xlink="http://www.w3.org/1999/xlink" width="80.819" height="80.819" viewBox="0 0 80.819 80.819">
  <defs>
    <linearGradient id="linear-gradient" x1="1" y1="0.087" x2="0.181" y2="0.91" gradientUnits="objectBoundingBox">
      <stop offset="0" stop-color="#9d39b7"/>
      <stop offset="0.494" stop-color="#f6632f"/>
      <stop offset="1" stop-color="#f8c962"/>
    </linearGradient>
    <filter id="back" x="0" y="0" width="80.819" height="80.819" filterUnits="userSpaceOnUse">
      <feOffset dy="3" input="SourceAlpha"/>
      <feGaussianBlur stdDeviation="8" result="blur"/>
      <feFlood flood-opacity="0.063"/>
      <feComposite operator="in" in2="blur"/>
      <feComposite in="SourceGraphic"/>
    </filter>
  </defs>
  <g id="insta" transform="translate(24 21)">
    <g transform="matrix(1, 0, 0, 1, -24, -21)" filter="url(#back)">
      <rect id="back-2" data-name="back" width="32.819" height="32.819" rx="16.41" transform="translate(24 21)" fill="url(#linear-gradient)"/>
    </g>
    <g id="Instagram" transform="translate(7.792 8.033)">
      <path id="Path_3819" data-name="Path 3819" d="M8.512,0C6.2,0,5.911.011,5,.051a6.276,6.276,0,0,0-2.066.4,4.168,4.168,0,0,0-1.508.982A4.153,4.153,0,0,0,.447,2.937,6.258,6.258,0,0,0,.051,5C.009,5.911,0,6.2,0,8.512s.011,2.6.051,3.509a6.28,6.28,0,0,0,.4,2.066,4.174,4.174,0,0,0,.982,1.508,4.162,4.162,0,0,0,1.508.982,6.284,6.284,0,0,0,2.066.4c.908.043,1.2.051,3.509.051s2.6-.011,3.509-.051a6.3,6.3,0,0,0,2.066-.4,4.35,4.35,0,0,0,2.49-2.49,6.28,6.28,0,0,0,.4-2.066c.043-.908.051-1.2.051-3.509s-.011-2.6-.051-3.509a6.3,6.3,0,0,0-.4-2.066,4.178,4.178,0,0,0-.982-1.508A4.147,4.147,0,0,0,14.087.447a6.262,6.262,0,0,0-2.066-.4C11.113.009,10.824,0,8.512,0Zm0,1.532c2.272,0,2.543.011,3.44.05a4.69,4.69,0,0,1,1.58.294,2.8,2.8,0,0,1,1.616,1.615,4.7,4.7,0,0,1,.293,1.58c.04.9.05,1.168.05,3.44s-.011,2.543-.052,3.44a4.79,4.79,0,0,1-.3,1.58,2.7,2.7,0,0,1-.638.98,2.655,2.655,0,0,1-.979.636,4.734,4.734,0,0,1-1.585.293c-.9.04-1.17.05-3.447.05s-2.544-.011-3.447-.052a4.826,4.826,0,0,1-1.586-.3A2.636,2.636,0,0,1,2.48,14.5a2.585,2.585,0,0,1-.638-.979,4.831,4.831,0,0,1-.3-1.585C1.512,11.043,1.5,10.767,1.5,8.5s.011-2.544.043-3.448a4.825,4.825,0,0,1,.3-1.585,2.523,2.523,0,0,1,.638-.98,2.518,2.518,0,0,1,.978-.637,4.711,4.711,0,0,1,1.575-.3c.9-.032,1.17-.043,3.447-.043Zm0,2.609a4.371,4.371,0,1,0,4.371,4.371A4.37,4.37,0,0,0,8.512,4.141Zm0,7.208a2.837,2.837,0,1,1,2.837-2.837A2.836,2.836,0,0,1,8.512,11.349Zm5.565-7.38a1.021,1.021,0,1,1-1.021-1.021A1.022,1.022,0,0,1,14.077,3.969Z" transform="translate(0 0)" fill="#fff"/>
    </g>
  </g>
</svg>
