<svg xmlns="http://www.w3.org/2000/svg" xmlns:xlink="http://www.w3.org/1999/xlink" width="80.819" height="80.819" viewBox="0 0 80.819 80.819">
  <defs>
    <filter id="back" x="0" y="0" width="80.819" height="80.819" filterUnits="userSpaceOnUse">
      <feOffset dy="3" input="SourceAlpha"/>
      <feGaussianBlur stdDeviation="8" result="blur"/>
      <feFlood flood-opacity="0.063"/>
      <feComposite operator="in" in2="blur"/>
      <feComposite in="SourceGraphic"/>
    </filter>
  </defs>
  <g id="twitter" transform="translate(24 21)">
    <g transform="matrix(1, 0, 0, 1, -24, -21)" filter="url(#back)">
      <rect id="back-2" data-name="back" width="32.819" height="32.819" rx="16.41" transform="translate(24 21)" fill="#00aaec"/>
    </g>
    <g id="Twitter_color" data-name="Twitter color" transform="translate(7.792 9.452)">
      <path id="Path_3820" data-name="Path 3820" d="M392.023,206.679a6.822,6.822,0,0,1-2.005.564,3.574,3.574,0,0,0,1.536-1.981,6.878,6.878,0,0,1-2.219.868,3.444,3.444,0,0,0-2.549-1.13,3.538,3.538,0,0,0-3.491,3.581,3.654,3.654,0,0,0,.09.816,9.833,9.833,0,0,1-7.2-3.743,3.647,3.647,0,0,0-.473,1.8,3.6,3.6,0,0,0,1.554,2.981,3.429,3.429,0,0,1-1.583-.447v.044a3.561,3.561,0,0,0,2.8,3.511,3.33,3.33,0,0,1-.92.126,3.392,3.392,0,0,1-.657-.064,3.506,3.506,0,0,0,3.262,2.486,6.9,6.9,0,0,1-4.337,1.534,6.989,6.989,0,0,1-.833-.049,9.724,9.724,0,0,0,5.354,1.608c6.425,0,9.937-5.456,9.937-10.189,0-.156,0-.311-.009-.464a7.167,7.167,0,0,0,1.742-1.854" transform="translate(-375 -205)" fill="#fff" fill-rule="evenodd"/>
    </g>
  </g>
</svg>
