<svg xmlns="http://www.w3.org/2000/svg" width="31.945" height="22.517" viewBox="0 0 31.945 22.517">
  <path id="USERS" d="M760.2,880.8v0a.993.993,0,0,1-.995.991H751.8a1.236,1.236,0,0,0,.971-1.2v0h0s0-4.5-3.3-6.139a5.948,5.948,0,0,0-2.2-.732l.019-1.951a3.66,3.66,0,0,1-1.01-2.429c-.482.139-.641-.564-.67-1.012-.026-.432-.279-1.783.309-1.661a11.882,11.882,0,0,1-.164-2.146,3.894,3.894,0,0,1,3.86-3.208c2.648.115,3.7,1.695,3.844,3.207a12.017,12.017,0,0,1-.172,2.145c.589-.121.333,1.228.3,1.66s-.189,1.148-.67,1.01a3.642,3.642,0,0,1-1.011,2.425l.018,1.947s.487.277,2.545,1.127,1.412.214,3.088,1.046c2.649,1.313,2.649,4.926,2.649,4.926Zm-14.923-6.662c2.262.935,1.552.235,3.395,1.149,2.911,1.443,2.911,5.414,2.911,5.414h0v0a1.091,1.091,0,0,1-1.093,1.089H729.354a1.091,1.091,0,0,1-1.093-1.089v0h0s0-3.971,2.911-5.415c1.842-.913,1.133-.172,3.395-1.107a26.121,26.121,0,0,0,2.8-1.259l.021-2.151a4.025,4.025,0,0,1-1.11-2.67c-.53.153-.705-.62-.736-1.112-.028-.475-.306-1.96.34-1.826a13.1,13.1,0,0,1-.181-2.358,4.28,4.28,0,0,1,4.243-3.526c2.911.127,4.064,1.862,4.225,3.524a13.176,13.176,0,0,1-.189,2.358c.647-.132.366,1.35.334,1.825-.029.492-.208,1.263-.736,1.11a4,4,0,0,1-1.111,2.665l.02,2.141S743.019,873.208,745.28,874.142Z" transform="translate(-728.26 -859.28)" fill="#66cada" fill-rule="evenodd"/>
</svg>
