<svg xmlns="http://www.w3.org/2000/svg" xmlns:xlink="http://www.w3.org/1999/xlink" width="80.819" height="80.819" viewBox="0 0 80.819 80.819">
  <defs>
    <filter id="back" x="0" y="0" width="80.819" height="80.819" filterUnits="userSpaceOnUse">
      <feOffset dy="3" input="SourceAlpha"/>
      <feGaussianBlur stdDeviation="8" result="blur"/>
      <feFlood flood-opacity="0.063"/>
      <feComposite operator="in" in2="blur"/>
      <feComposite in="SourceGraphic"/>
    </filter>
  </defs>
  <g id="twitter" transform="translate(24 21)">
    <g transform="matrix(1, 0, 0, 1, -24, -21)" filter="url(#back)">
      <rect id="back-2" data-name="back" width="32.819" height="32.819" rx="16.41" transform="translate(24 21)" fill="#42d374"/>
    </g>
    <path id="icons8-whatsapp" d="M10.842,2a8.842,8.842,0,0,0-7.7,13.183L2.014,19.2a.385.385,0,0,0,.37.488.4.4,0,0,0,.092-.011l4.189-1.038A8.842,8.842,0,1,0,10.842,2Zm4.448,11.963a2.338,2.338,0,0,1-1.532,1.066,3.156,3.156,0,0,1-1.43-.089,13.3,13.3,0,0,1-1.294-.472,10.076,10.076,0,0,1-3.878-3.385,4.332,4.332,0,0,1-.927-2.318,2.5,2.5,0,0,1,.795-1.87.839.839,0,0,1,.606-.281c.151,0,.3,0,.435.008s.327-.053.511.385.643,1.552.7,1.665a.409.409,0,0,1,.019.393,1.511,1.511,0,0,1-.227.374c-.114.131-.238.292-.341.393s-.232.233-.1.458A6.755,6.755,0,0,0,9.89,11.841a6.224,6.224,0,0,0,1.825,1.113c.227.112.359.093.492-.056s.567-.655.719-.879.3-.187.511-.112,1.324.617,1.551.729.378.168.435.262A1.848,1.848,0,0,1,15.291,13.963Z" transform="translate(6.049 5.148)" fill="#fff"/>
  </g>
</svg>
