<svg xmlns="http://www.w3.org/2000/svg" xmlns:xlink="http://www.w3.org/1999/xlink" width="195.363" height="66" viewBox="0 0 195.363 66">
  <defs>
    <filter id="input" x="0" y="0" width="195.363" height="66" filterUnits="userSpaceOnUse">
      <feOffset dy="3" input="SourceAlpha"/>
      <feGaussianBlur stdDeviation="3" result="blur"/>
      <feFlood flood-opacity="0.043"/>
      <feComposite operator="in" in2="blur"/>
      <feComposite in="SourceGraphic"/>
    </filter>
  </defs>
  <g id="whatsapp" transform="translate(-185 -21)">
    <g transform="matrix(1, 0, 0, 1, 185, 21)" filter="url(#input)">
      <rect id="input-2" data-name="input" width="177.363" height="48" rx="24" transform="translate(9 6)" fill="#42d374"/>
    </g>
    <text id="تواصل_الان" data-name="تواصل الان" transform="translate(300 57)" fill="#fff" font-size="16" font-family="SegoeUI, Segoe UI"><tspan x="-72.516" y="0">تواصل الان</tspan></text>
    <path id="Logo_Whatsapp" data-name="Logo Whatsapp" d="M19.807,3.75A15.425,15.425,0,0,0,4.323,19.115a15.206,15.206,0,0,0,2.222,7.934L3.75,35.292l8.573-2.723A15.511,15.511,0,0,0,35.292,19.115,15.425,15.425,0,0,0,19.807,3.75Zm7.7,21.2a4,4,0,0,1-2.739,1.765c-.726.039-.747.563-4.706-1.157s-6.34-5.9-6.528-6.173a7.594,7.594,0,0,1-1.461-4.116,4.388,4.388,0,0,1,1.507-3.219,1.516,1.516,0,0,1,1.072-.452c.312-.005.514-.009.744,0s.577-.048.877.749S17.291,15.1,17.382,15.3a.717.717,0,0,1,.007.688,2.689,2.689,0,0,1-.42.639c-.207.222-.435.5-.619.665-.206.188-.42.392-.2.793a11.849,11.849,0,0,0,2.1,2.8,10.8,10.8,0,0,0,3.1,2.064c.388.212.62.188.861-.065s1.031-1.109,1.309-1.49.539-.308.9-.164,2.264,1.166,2.652,1.377.647.319.74.486a3.252,3.252,0,0,1-.3,1.856Z" transform="translate(309.795 31.25)" fill="#fff"/>
  </g>
</svg>
