<svg xmlns="http://www.w3.org/2000/svg" xmlns:xlink="http://www.w3.org/1999/xlink" width="80.819" height="80.819" viewBox="0 0 80.819 80.819">
  <defs>
    <filter id="back" x="0" y="0" width="80.819" height="80.819" filterUnits="userSpaceOnUse">
      <feOffset dy="3" input="SourceAlpha"/>
      <feGaussianBlur stdDeviation="8" result="blur"/>
      <feFlood flood-opacity="0.063"/>
      <feComposite operator="in" in2="blur"/>
      <feComposite in="SourceGraphic"/>
    </filter>
  </defs>
  <g id="twitter" transform="translate(24 21)">
    <g transform="matrix(1, 0, 0, 1, -24, -21)" filter="url(#back)">
      <rect id="back-2" data-name="back" width="32.819" height="32.819" rx="16.41" transform="translate(24 21)" fill="#ce1312"/>
    </g>
    <g id="Youtube_color" data-name="Youtube color" transform="translate(7.832 10.442)">
      <path id="Path_3826" data-name="Path 3826" d="M256.754,468.253v-4.817l4.6,2.417Zm10.1-5.652a3.727,3.727,0,0,0-.677-1.7,2.423,2.423,0,0,0-1.706-.726c-2.382-.174-5.956-.174-5.956-.174h-.007s-3.573,0-5.956.174a2.424,2.424,0,0,0-1.706.726,3.724,3.724,0,0,0-.676,1.7,26.117,26.117,0,0,0-.17,2.775v1.3a26.1,26.1,0,0,0,.17,2.775,3.724,3.724,0,0,0,.676,1.7,2.873,2.873,0,0,0,1.877.733c1.362.132,5.788.173,5.788.173s3.577-.005,5.959-.179a2.426,2.426,0,0,0,1.706-.727,3.727,3.727,0,0,0,.677-1.7,26.1,26.1,0,0,0,.17-2.775v-1.3a26.117,26.117,0,0,0-.17-2.775Z" transform="translate(-250 -460)" fill="#fff" fill-rule="evenodd"/>
    </g>
  </g>
</svg>
